<mxfile host="Electron" modified="2024-02-16T06:12:57.766Z" agent="Mozilla/5.0 (Windows NT 10.0; Win64; x64) AppleWebKit/537.36 (KHTML, like Gecko) draw.io/21.2.8 Chrome/112.0.5615.165 Electron/24.2.0 Safari/537.36" etag="IikT1XKoUG8NqTX6yTDW" version="21.2.8" type="device">
  <diagram name="Page-1" id="2XWkQP5S-hDbL94sL5Vg">
    <mxGraphModel dx="2058" dy="1180" grid="1" gridSize="10" guides="1" tooltips="1" connect="1" arrows="1" fold="1" page="1" pageScale="1" pageWidth="3300" pageHeight="4681" background="#999999" math="0" shadow="0">
      <root>
        <mxCell id="0" />
        <mxCell id="1" parent="0" />
        <mxCell id="APLwThIm-aDqV8bCMrbt-1" value="Decoration and Section" style="rounded=0;whiteSpace=wrap;html=1;fontSize=25;fillColor=#dae8fc;strokeColor=#6c8ebf;" parent="1" vertex="1">
          <mxGeometry x="1298" y="140" width="650" height="60" as="geometry" />
        </mxCell>
        <mxCell id="CTh8d3VMY36ejksEnk7g-1" value="" style="shape=image;verticalLabelPosition=bottom;labelBackgroundColor=default;verticalAlign=top;aspect=fixed;imageAspect=0;image=data:image/png,iVBORw0KGgoAAAANSUhEUgAAAosAAAJaCAYAAABHiA2dAAAAAXNSR0IArs4c6QAAAARnQU1BAACxjwv8YQUAAAAJcEhZcwAADsMAAA7DAcdvqGQAAMSDSURBVHhe7N0HYFPV2wbwJ0n3Lh3sVfaUWZChspGp7CWCCqK4/+oniFtBcTIEGQrKUDYIIjJVdpG9hLKhFNoC3TvJd94MLCXphtLy/PQtyU1yk3sLt0/PveccTZ06dY1G/Md4yz1F3f9vieWW+iPTs4q4PG5NPnZC8dp/d0Ih7KH75JvCv3tUWDSWP4uEQvmwRWoP3XX52jt5fnHx+Z6YtuS/Lybmu7duo/mueZn1cU1tFRZNS9SPkNtzonXBzafk8AdNzp5lUx5fmo93LCR3d0OL3v65XxSh7wz/Et17bj3Gk03cSVkplL2T5zctWt/Le28zzSs2ff3vi4kmi8AoLGExU1DM3Jpo/t8i8/17RT4+UR5feu/tg6zc/f2TH0Vr3xYG7iG6n9z6g4xul+c9dPdfWKRkylC5dO/to9tbDW9+sdw03xa3PLd2nTq3nHnO3Jr4392MAVLceu8WWTyUnXy8NO8y7oBcKJTPWijyuKX3yQ66f/4eEFFO/Pfj9i7K85sWyqe96wpn9+TtxXfuLf970HTLEgwzhkJh6zFNrdp1zD/rbgmD6pb5f9PtW7NU5vu2ZPsE+/L40ny8Yz7cL9t5vyhCe7eI/UXg39s747/DezFXKBt63+zduy7PezZf35K7//28F7fT9KglCIqbYdD8h/XLLc+TP8xhMVNQvBkG1Q0HR0e4u7vBydEJTs5O0Ol0d/TIn/GTkA1Favfc/Q/Lvz1EVNjMP2LvtsJ51zwpQh+1MFii252hVq3X65GSkoLU1DQkJiYiPS1NLTe/pzU83vxqXV6rVu0MDYW3BkVPT094+3jjWnQckpLTkKxWnJaebnlCLtx8A/ObEhEVrjz8WsHDlx3F5Ve04rIdRFlzdHCAi7MjXJ2d4O/rjejoGMTFxv4XDM0p0Xzb9EXF15oqLJqWZAiKct2iv7+/WqJFeNQNpKblISBa3fLvj0dbIrrX2AsJcrzK9BgPYVmwtx+LiqL++Ylyz8nRAaX9S8BBp0FERKRlqSkfylfzbVVa0y31j8QcFOVPI7w8PdUtLc6HRxZgUCQiKmqYDnOO+4qoqJGMdz48Aul689lkcyfn/zKh9atWlvwXFM3Nk3LqWVoU80zWZ34PIqIiysaBjMe1Yoxhl+5f4VHX4ePtbcqAGTOh9aCntR77zAsBdw93XIuOz1mLorzGVtmV5YNERIUglyGBh7FijIGR7k+S+aKiY+Dm7ma6b82E1sColS83x1ZUf0qv56TkVPP9rOT5gMkjLRHdayQkWMseBon7A7/PdH9KSkk1ZUBrUrSekpb/tTezm1ooN2V4HOn1TERERET3h+SUNDg7O5tj4c1GRNP/0FSvUdN007zciEoVK+Ho6Ytyxy4vD3c4Ougs93IuLV2P2LgEdYu/uRFRUWA5YNrCw5gdWeyzIqM4bANR7tWpUhHnzp9TtzQ3e0TLn6awaD0NLX9WqlQRx05fMt235+uJE1ClalXLPdusk1KHXYm6GVATYq/htTfeglbrYF5ARFQkMDTmHMMiUVFVu0oFnDt3PkNQNB/gTL2hxc3rFnPAx9sLdWpWy7Jq16hqqg4PN0fHR8wV4O+Xq/chIrrn8ZCWifxwKeoJmr8BFDcfvTsOF04eRdjpf22WPCbPudfs2LQOLZoFW+7dTh7bvvF3y72CYj3b/F82tIyzmDs6nRbnL0Rg0oLtmPzzNkxZtBVTl/6Nb1f8ibNnLiEpIQ6RV6+YKjE+DvP+OGSqnHh62BCEnVHfUEsVlCN7t2POzKmWewXP+rnFts1rb9mGgtyOgvLx+2/n63Nl3F6i4s9WeGCgyBr3D907nhwyEB269kSthsE266EOj5qec695fey7mPrN5zYDoyyTx954+z3LkjsnT2FRDgEajQ5nY+JxLi4O5xNjcTElBpfSopGWZlBJVJXlPyudk95yy/4BpFnTxnj1xedQNqiOqXr1H2oKNXkhwTBjOKzbuCWGj3zBcq/gDR86CO9+OMFyD6bb1u2Y89NCU7CSgFWYMoa7ce9/YvpsefX93PlYv3HLHQ3gRPeWzMcuNikSFRU6nQ7hVyMQGxtrs86dv2B6zr1mx+4QvPDKG7cFRmtQlMfkOXdansKi3mA+SAb4OUPjlI6Y9FhEJl/D1STzVDGaTMdQF99kuPknWu7ZV7dOLZw9d95yD9i9Z68p1NzrJOTKYJYSoGyRbZDAKIGyOPlu1hw0bdzQco/ofmD6Vdl8k4joLsgcGO92UBR5CovWLHj86iWcjQ5HdPoNJCEOqZp403Kj5ViqsRxU3X3i4eZhfiwrErYaNXzAbmuVnEqW1jGpjC2O8nzrcjkFLPc7tm9jKlkmYU6WW1v25L71+VIZ30+eZz1FK7V62ULzA1no3rXzLSHXltW/rTMFSitZr633sHcaPuO2y2e0ks9u3X5ZT+bXW/eT3Lb+aX1e5vVkfJ3sI2F9XsbPa31Mwryw3iciIqKClzEw3u2gKHIeFiUhWsr6e3WSCoeOrmlwdEmDg3MqHFWZmJ7z32/fNQPKo6pPkOVe1uTUaLWqQaZQYg13QgLL11Om3zy1+1j3LqblEnLk+dblrdp2MZ1ullOkUrLMGmqsli/66ZbTxNI6ljF8yrqtj0l4zS4MlS1TGlHXrlvu2SafwdfXx3RbPrM83/oeQrZV6sN3x9xcbn1Mtn3P3v03l924EX1LwJRQLMu79x5kCtzW58lpfOt+kvvWP+V5Gcm2yz6wvk72jewjq8qVKuLg4aOmx2Sfjnvrf5ZHgOiYGFOLMNH9JVPrYobjIxUXmb7HdJOtDiK2ioqPPLUsWplCoipHZ6kMYVH9G8t4zKzqW8VUOSWBT4KJBCdriJPAIvetrVsSvCRcSVCUU7w5Ja+RVsCMp4xXrl6LB+r9d/2ehFIreW5OwlDY5XDLLdskcErIE/KZra2eUhJIW7VobioJY5nJtme83vLjT780LbPK/BoJl7LejIEvK7Ltsg+sZN/IdlvDuty2Xg6wbceum6FXWLeJ6P5jJ0wwMGZQ1AMXA6MtZavUzFFRwcl46jnjKem7xTI3tOXoJl2kc3GgMwdFc0h0kj+dzGHR3NXauiIjUtPSkJSUbLmfc9LC9chDLS33zK1iGcveNYJ5kV3LYHakdTEro0YMv+VUdcaWTancdr6RFj1bJCj++fd20zqlZTE/jhw9brllX8bgSHT/kTBhrQxycRylex0DIxWuzNcoZr6GsUDdjG/qy82hDk1zQ+eB+reTkpKEZv5V0MS3Ghp5VUcD91qo71rHtNz8FPM/MHkvg8EAvarsSCuitTVLSEubteVKgpacvs0s9NQZmx1HpKXP36+E5d5/JGBKq1zG95FTtdJillf23stKPre0JFpP/9r7zPIZ5HmZZd52OQ0s67DHGkoloGYk+9LWKXU5xWw9XS1k38j1lZlP39siz8tJqCQq/hgYbZP9UtQDV1H//KTX61Eii8aNUiVLmp5zr7HXmeWOBkYb8hQWJffVqlEez7Zpj2cf7ogRrR/FM6174OmWPVGzRjm4ubkjMDAAJVSAcnRyNIVFrTb7f2xyqlOGzrGenpXTtdaAJaemM566lQ4fQlrkJARZl0vLmpAOJXJ6V5ZlDkjS4pbxlLacgs1PK6W8V8bTwiLj+q3XVFpZWxGtj0vJZ5TPYB1mx1pCtl2uKcy4zF5LpLQqWt87c4CVECmnpjNe7yhkv8s1kdb1y+tlqKHsWPdrTkIl0f2BocI+7hsqPD/O/xl/b/jd5rWVUiFbN5uecy+R2VM+/+SD24KilTUwfjH+Q8uSO0dTrXoNaWs0tzaqL5UqVcKxMzam+8vwW/IrKtA1bPCA5d7ttFqtqSSlZ5yx5dDBw/j868nQ6orfdH8SUiXoFeSp8XudtbUzt6fQiYo/y3GP+SiTDD9Iipyi/NmpqJLAeDdnvqsdJNP9nTMdu0xniNX7y4x/eQqL8sGNBhUELfdvZ/sIKUs1Wp1p44sbOXUrLXIZWxCLs/tte4lyx3J0LH6HugJg/yfHva8of3ai7BVoWMwej5BEdD+zHDB5KLShqAeuov75ieyzFxbzNXQOERHZYkmJpl/CMxQVA/wNgO4/tsNi5gNbrg5y/IdERMRjoT3FYb/we0v3l6xbFrP9bVj+wWQuIiIyy3RctB5TMxYVUfx5R/ePfJyG5j8UIqJ8uy8DY3H5+cGfg3R/4DWLRER3nK1Qcb8HDQZGoqIij2GR/ziIiPInQ5PifXs6mj9LiIoCtiwSEd0LrNcwZiwqIiT0MvhS8aXC4n9jLPLYRER0p+QhUGQMjtaiexgDIxV9psOM+nLzcKNuaKpVr26eScYSFitXqoQNG9abHrdHb0xBWGwIwuJCEJlwFEnpUUhIi4LekGJ5BhEREREVBp3WGe6O/nB18EeAex2U9QxGWa9g6DTOlmfY1qFDR5w9d878a49pQG7T0Ny5C4vphiQcj1qmajmMoSdRNiQOZfbEwftCClyj0uB2Lc3yTCIiIiIqDIl+jkjyd0BMBRdcbuqJsGBPCXyo5d9LVW84aF0tz7xVvsPihZit2Bs+A8b9+1BrWaSqKMsjRERERHQvO97bX1UANA0boXHpZ1HBu7Xlkf/YC4s56uByLHIJNp8di7LT/0S3EScZFImIiIiKEMlukuEky2059zaORy21PJK9bMOirCzk5Hg0/fQEgieHwSlBb3mEiIiIiIoKyXCS5ZqM/xe7T3xiagzMiSzDopx6DgmbjKZqxXUWRVqWEhEREVFRVWdxJJpOCTNlPMl62bEbFqUzi1yjWOuHM6aVEhEREVHxII2AteecNWU9yXxZsRsWpdezdGZp8P0VyxIiIiIiKi4k40nWk8yXFZthUcZRlOFxpNczr1EkIiIiKn4k40nWk8wn2c8em2FRBtyWcRTZ65mIiIio+JKsJ5lPsp89tsNiXIhpwG0iIiIiKt4k80n2s8dmWJQp/GRmFiIiIiIq3iTzSfazR2ueKdo8e4tptmhVMtez94Vk0xIiIiIiKr5k2mbJfqY0aJnRz5QJLbdttiwmpEXBNSrdco+IiIiIiivXqDRT9rPHdm9oQwrcrqVZ7hERERFRcSWZT7KfPTbDIhERERGRYFgkojtK5gW4rOqEqvOq4lWZr4fJHbkw5pqq06rCVCWqyo+CXp8oqG0lIrqXMCwSUYGLVTVeVR1VnqrKqqqpqpIqL1VlVD2h6oCqrEjQWq+qkypvVf6qqqoqp0rW84CqaapSVeVEQa9P5Gdb/1El791AVbgsyAHra+Sz26uSqn5URURUEBgWiahAzVcVpOptVcdUuaiqrKq2KglSOlUyiag8b54qe2RG+kdVSbCTgCfjMwSqkiBWXpUcvA6pGq1KQt6/qrJS0OsTBbGt8rmkNTI35DXSKppVce4tIiooDItEVCCk1W6cqmGqrqtqr2q3qmhVZ1TJCF6XVMkIrltU9VTlocoWCVjtVP2hylnVm6ouqrqq6riqC6rkPb5XJYFPgl0bVUdU2VLQ6yvIbc0r+Zz7VdkKihGqBqoiIioIDItEVCDmqvpUlRxUPlclrXfBqhxUZSStb4+oWqnqVVmQiVxL+KKqw6pKqPpd1Weq5HRuRhK+nlK1R1VdVRIIn1Ylp4UzKuj1iYLa1vyQwCqnm2WbbJWrKiKigsCwSET5dkrV/6mSU59jVP1PlUZVdnwsf2a0SZWEKwlecv2gtPBlpYIquT5PrkGUyap+UZVRQa+vILeViKgoYFgkonybokquo2usSk7x5pUEMFmXtAa2VdVbVU40UmV97gxV0itZFPT6REFtKxFRUcGwSET5EqPqN/NNjFLlbr6ZJxLC9qqSljo5JZz5tG5W5Bo96VAiQ+HINYiioNdXkNtKRFRUMCwSUb7ImILSmUOu+WsuC/JBOpvIhFMyBE1DWZAL1VXJqWO5xtDak7mg11eQ20pEVFRo5SJp05XS8of603KTiChHZHxAGZdQglUpWZAP0rNYThnLumS8wNyQMQ3ldXIMk17JoqDXV5Dbml8y9I9cMyk9sjOXDOUjjxMR5ZY1B/6XCY1sWSSi/JGhWuSAIq1tMiyNLdJ7uKIqGc/QWjKwdAtV1iAmblj+dFPlaL6ZY06q5HVChqwRBb2+gtzW/JLPJB1xbNVaVdYDPhFRfjEsElG+WK8DlJYsewNBS+uenL7NWDLFngxPk5E1gEmHEnlNbsjzra1pvpY/C3p9Bbmt+eWnarYq6a2duT5SldtwTERkD8MiEeWLjOknHUhkbmVrC1xmg1RJYJLTuBKalquydfCRUCbrSlBlb132yPvLXMzSKUWClCjo9RXktuaXrLOLqv42qpuq3HTmISLKCsMiEeVLDVXSgUSuD5Qp72yR07lyjZ+UDCRtrxexdV1y+lgG0c6Nk6rkNLFcTyhT+Ik7tb6C2FYioqKCYZGI8kWux6uqSk7LyvzH+blWTtYlcy0bVP2kKjfrWqpKTgFLsLPOznIn1ldQ20pEVFQwLBJRvsi0cs+ab5pmStlmvpknsq7nzDexWtWf5pvZkjmcF6iSU8SjVUnnFHEn1ldQ20pEVFQwLBJRvg1Q1VSVXBs4XJV1XMK86KdKZkeRTikjVIWqyspVVTKHs5wabqmqh6qMCnp9BbmtRERFAcMiEeWbjEk4R1VpVTLjyYOqvlQlA1pnFqFqj/mmTTKHsvTyDVQl65LAJsPBpKjKKE3VMlXBqmQOZ7lGUKbmk2FtMiro9RXktlpZO83IZ7BVtnpe5+U1RER5wbBIRAWijqq/VNVTJeMJvq5KBsKurUrmZZZxBmX8Qbn+b5wquY5QTuva0kDVJlVVVMmUfTLQtPRIlhbCDqqaqJKeyX1UyVR88h5/W/60paDXV5DbKiRUymslmNqqV1Rllt1rHlElA4gTEeUXwyIRFZhqqmQuZmmRk44h0rolU+5tUbVTlQQxGf/vIVVyTeB+VdLyZ0tdVXLt4ARVlVVJK9o+VRtVyXvIfemdPF2VrEfeOysFvb6C2FY5AEtvaes1kfZI2LSS10gYlDEkpXXRVgkOnUNEBUVTtVp1o8zpIr36jOrPypUrYdDnCRjQ/h+4XZOTGUREeSPX/cl4gzIEjYsqORUsPYrzEmSkRVDWJS150oonp4Gtg2XnRUGvL6/bmpPBwiUgZvzNPidHZnm+jBFJRJSdRD9H/LKxCRa+4Y6zZ89BozH/2il/ys2Mx5+b3B39keTP8f+JKH/k1K6cspXWNbkWsJKqvLZ4Baiqr0rWJadf8xPsREGvL6/bKs/JrjIfqOXonF0xKBJRTiX5O5iynz02w6Krgz9iKtib+ZSIiIiIiouYCi6m7GeP1noKWv40DTGr/g9wr4PLTWWeAiIiIiIqziTzSfazBEJLJpSb5lxos2WxrGcwwoIZFomIiIiKO8l8kv3ssR0WvYKhqVYdx3vbb5IkIiIioqJNsp5kPsl+9tgMizqNM2r591IrCECqOy+TJiIiIipuJONJ1pPMJ9nPHpthUdTy7w1Nw0Y48LTMY0BERERExYlkPMl6kvmyYjcsOmhd0bj0szg2vDKO9pdBJoiIiIioODjaLwDHnwoyZT3JfFmxGxZFBe/WCC77Eva8WNa0UiIiIiIq2qQRcM9LZU0ZT7JedrIMi6J2QF80q/E2/hlbEyFqxbyGkYiIiKjokQwnWW7PWzUQXH0savnLjPjZyzYsCllZm0qfIOy5R7BmFntJExERERUlkt0kw0mWa1t5vKkxMKc0VatWMw+9aBqc24jKlSpj48YNpgczSzck4XjUMlXLYQw9ibIhcSizJw7eF5LhGpXOuaSJiIiICpnM9SzTNstsfDLgtoyjKMPjSK9n6cxi7xrF9u074Oy5s9Co/2RSaJkh2jQ/dG7CopXemIKw2BCExYUgMuEoktKjkJAWBb0hxfIMIiIiIioMOq2zaa5nmcJPZmaRAbdlHMWshscR9sJijk5DExEREdH9Kc+noQ2GFJRyq4eS7nXh5VgaLg4+KsH6WJ5JRERERIUhKT0ayapi08JxNeEIriQehlZrnnAlX6ehjfJVVeXKtsPihZit2Bs+A3oVGKv5dDAVEREREd37QqM3mEpnGUfb1pA5prB49qw5KFrCotzO0WnoY5FLsPnsWAS6VEOHCh8wKBIREREVIZLdJMMFulTHlnNv43jUUssj2cs2LMrKdod9gwYBA9AwcAgcsxnlm4iIiIjuPZLhGgYOxgP+/bHr0temxsCcyDIsyqnnkLDJaBgwCNV9O1uWEhEREVFRJZlOsp1kPMl62bEbFqUzi1yjWNW7PYMiERERUTEi2a6aT3tT1pPMlxW7YVF6PUtnlrr+vSxLiIiIiKi4qOvf25T1JPNlxWZYlEG3ZXgcuRiS1ygSERERFT+S8STrSeaT7GePzbAos7PIOIrs9UxERERUfEnWk8wn2c8e22ExLsQ04DYRERERFW+S+ST72WMzLMp8zzIzCxEREREVb5L5JPvZYzMsJqVHmabwIyIiIqLiTTKfZD97bIbFhLQo01zPRERERFS8SeaT7GePzbCoN6TAlWGRiIiIqNiTzCfZzx6t0fSHfDXfIiK6lxkNeuj1ehh4yCIiKnA3c6HRePO2zZZFIiJbDKlJiLkahtOnL+FyZDTikvR399fMtFBM6dIcJUt3xvNr7J8yuT/F4vDPX2DU6ClYcTLr2RiIiHKDYZGIspYage2z3kePRs1QsuQDKBv0MOrXfwTVKjVB6ZINUb3FC5i0J97y5DtPn5qMpIQ4JKRZFhSIFOybOBDVyjdB+QoP4qGxu1T0yp2EfyajY9Wm6vXN0Xj4Cpw1WB64S4xhWzB+zAzMmzsFYyZuR6RlORFRfjEsEpFd+vC/8XanR9H5lfnYdOI60hy9UTqoCmpUK4fSJVyhMyTi8pFjOJtgeUEBMCZfw/E/t+FIbtNafiXHI+p6NK5fi8S+RQuwPjw3babXsWXGUuwMv6FeH4XLUXe/ZU8TWA+dWpaDp3dFtOhQG36W5URE+cWwSES2pZ3F3NFvYHJIDDQBzfF/i9fhbFgIQg//gX0H/sSpiwdw+cRy/PRmW1RyKZiT0emnFmNA/VYIHjofh+Lv6gluCx08/HzgfGUrZi05jVTL0uykn/odM9aGw6VkALw0loV3m2MQhi3YhLCL6/FD/zI8uBNRgeHxhIhsSjy0Cj/8fQ0GXUUM/+FbvNu1CnwdMyYhHdzL1kfvcePwSnNPy7L80SAJMTFpMBjv8jncm7Qo3SIY1Z3jseenJQjJ0dn1RPzz0y/YEe2Jqo0qwsuytHBoodMVVlolouKKYZGIbEq4eA5XklSAK90QHet7W5beWcaMjYmF0bAIA7Q+tdAwyAkpJ9bg+41R2X4MY8RWzFx0AsleddC6pnpdoXxuIqI7h2GRiGzSOuig1agwdOMCQiPTLUtzxxB7Guu+/QRPdOmNZk264qHOz+PVr9bhyA295RnCiMitCzBhwhR8+sNOXJGOK2nh2PDdVNOyCROmY86OKBXjMjEN65CGq3tW4L3hw9DuwS4IbjUYT7y1AH9fyukJ5Nulayqie98H4Gm4ij9m/o5TWW56OkKXzsPvl4Cy7XuhW0VHtSQbKRHYs2QmXh86DO1bdUNw817o8Nj/MG7mXwiNtdOimhaG9dMmY/z46Zi1NUJteiJCV0/HCwOGocfAD/HjEZXq009jzTfT8Omn32LOzmjLC2+VHhOK1d98iKf6DELrZt3Ruv2TGPzaLKzYH6X2JBGRbQyLRGSTb/3mqO+r0mLCQXz74XKE2h+v1QY9Ird8ic71uqD3m3Ow/K9DOHYiFHu3rsfMd15AiwZP4rNdMZZWOwNij63DpI8nYcLkjeb3iTuOxV9Nwsdq2ccff4dF++Nua+FLjz2H1W8PQbOOb+LLJTsQcjgUR/fvxvIp76Fr86GYsDsvPbSN0DuUQLPBA9G+lBYxuxdj3t5Ey2M2xO/Hj3P3Ida5Kno/0xIlkpKyCF0GXNs+HY/XfwRthk3E9GXbsPPASRw/cgg7NqzC168+jSZ1B2DchggbgTMBR5fMwiefzMXGUxexdswAtBrwJeas3oZNa7fj3zj1FKMeJ1dNw0cfzcOmy5k/RTourhiL4KpdMODtn7Bo3T84cOxf7Nu5HStnfIZXPtuOSLaIEpEdDItEZJO2Qg988k5rBGj0uPzrODz8yBj8eCA6+5YzJW73VPQbOB3brzmjRv93se7AToRf3Yeze2dhXIdS0EXtwoSnP8aqcGlJ06Fk2xfxw5KZWDh1MBq6qUW+TfDy9GlYopYtWfI1xnYIUM/KSI8bG6dj7C8JaPvxT9h/Zi/Cw7Zj97xn0MxXC8ONf/DN2wtwJFcB18xoMEJXrg1G9g6CU/IJLJ69E7ZHdDTi6oYFWHwsFV7B/TCshR+cHSwP2RC7awr69P4S6y+lwzd4KGas+x3/XjiA8Itb8c/aT/B0I28Yru3D10Oew/hdkv5uZc1yKft/wttzrqPp8+9i/poFWDn9STT2sjxqJ/DFh0zFoFGLcSK1FDq99z0OnD+IyKv7cf7ftVgzaRjaB7mDVzoSkT0Mi0RkhzNqPvMVFn3SFhWcDIg5tATPt34Yjft8jV9PJtx+Wtgq8TCmvjkbIXEuqPviDGz6fihaV/OHh5sHAmu2wZiF0/FWsDvSzq3DN/P+RbJ6iUe1YHTp0hbdWgfBQ45KGi/Ubd/BtEzqoeoeplUL83WNN7B1XRjaf/sjZo9+ENUCPeHhHYi6vd7AvK86oqRKPvGHNmL96byeXPVEsyf7oKmnAZd+n49fz2Q8bW6RegqLvvsTlxGIDiO6oLqjdNCxI+EAvv7fLLVPHBA04Av8te5dDGldDeVLuMHDtzRqPdwfk9cvwled/KCJP4hp7y7GcZtn0uNx+K8wBH+9AEs/H4rH2zRDh0GD0KeOJGx7knHi9004Eg/4dXwNk19/GNX8XOGivh/+5aujzTPj8P349ijNtEhEdjAsEpF9Wh80e3k6tm+egJEPBsDJkIBTv3+LgcFt0Ob5n7H3xu2R8frWhZi3PwkOlbvjg9cfhJzJvoVbXQx5phlKIAnHN+7G+TxdDqlBQPtR+F9Hv0wHMR3KtuuFDuV1KrSG4cjpvA8W7ly7O0Z0CFS59B/8sPAoMp+Mjt29CHN3x8O5ZjeM7BiYZcvc9W2LsOhwMjSBbfH2B90Q5Gx5ICPXqhj4Rh/UdQHi9q7EUvX8W5hScgpiPVthRM+KUE/LMXmlfD59agrS7LQ+EhHZw7BIRNnQoUTDvvh6w2bsW/kG+tTxgi7tOv758R10bPUiph/IeD1hEkK3HUK4XoPABk1RxTkFycmZKiUZWr/S8HNQee7CCZy9/YxrDjijUnBtlLR1BPMoiQol1MqNqYiNTbF3ZjZ7mpLoNKILajgl4fDPP2PrdctyYbyKP2b8hpNpHmg6tC+Csxw5KAmntss+AfyadcZDZe0fdj3qt0HbSuqzJ1/G3sOZOvVoJO45onLbR1DH3bwoZ1xQvmENlFSrjd78FZ77aDPOJDAxElHOmY5apl9YVUnfQuu00UREt9C4onKHZ/Hjzj+xbXo/POCtRfK5P/B/A97G4nPW07SJCL9wHanqOBK+agyalK2PkiUzVWAD1Oz3s6mXsSE5HnG57LhsykxwQ5nyvnAyLcnEwQN+XuaLBw0GuyfLc8SrWX882cwT6ec2YOaaSzfDW+rx1Zi5IRKa0g9hRN+qtj/HTYm4fP4G0lTQK1mj4u0trRm5BCKojJxSTkZUeJyNzjIuCKzgl6tWRVGy65v4ckQdeOE6tn4+Eg2rdkCP1xdi6/kk+5cTENF9x5wBTYHQdMtE3WDLIhHljs4L9YeOx8b1b6NjoBb6i79jzNtrYZodz5iKBNOkzRq4l6yEGjWq2q6a1VC7Tg3Uru4HV8PNQ1IuqMSVVegqKM5V0eeZViiticbW71fikGkWv1hsn70Ie+IdUPXxQeiY3cV+xhTExUkLpxZOLo5ZH3R1LvD2dFQ3DEhLTr0lyJnfxQne3s65P3DrAtHli8XYrQL8oMb+0MWdw6bp76Jz/dZ45JVV+PfuTe1NREUQwyIR5Ylb3QH4YFQ9uKkYFLHnb+y/oRZqnOHp6aSCjQYl2r+Fdbt/Q0iI/dqz/gN0u6d7VmhQptMT6FvTCQn7l2HWXzegv7QZM5afQ5pHQwwb3jj7GVs0rvD1dVZrSkXE6XBkmctSo3Hpilwd6QifAE/1tSA5o0LbpzHr7204FfIdPuxXC76Ixt5Zb6LHqJU4m9e+QERU7DEsElEeOaPcA1Xhp44ixtREJJhOJ3ugUq3ScIUB18+cRUSeOq/cYzwbYOjQBvDSh+GPH//A+uXL8XckENhuIPrUykmc80SV+uVNoTrmTCguZ+q3cov4MJy8kgI4lETd+gEwn0wvaA4oUbs9/jdnObbPfhxVnPQI+2Melp5gWiQi2xgWicim+LAwXLcxYsx/knHxwClcMwCOvmVQyjS6jROCWjZBRSf1+j2LMHOr7ZlE7NHoHOEgR6W0JMQl3StX0zmhZt8h6FQGuPLnPHw2Zz9iHIPQ+9lHUDZHjaIOqNy2Deqp/RO/5ydMWBEG27s1Fcfmz8bK8wY4VWmN7g8UzHzb9jmiYseeeKSsDki6gn/P8Vw0EdnGsEhENhhwbdPn6Nl9DCavC0VUSqbgpo/Dv8s+xXNfH0QiXFCrZxc0sgyF6NG0L4Y/6K2yz2nMe+19zNgbfVs4Srt+FPPf/wJLTt36iNanFMp6qcNSwlnsPGBjir9CoindGk/3rgKn2BPYczIJHk16YVjzbE9A3+RSpxdefqwCHA0RWPPWa3j3t0u4dbzwFJxZ+RlGfbYHsdpAdHz1SbQssOm4Y7F95ndYdPD2AdXjTu7DkUj1PXAvh3pB/41lSUSUEcMiEdmkMcTg9F9LMKb3o6hcJhi1g3ujU9eh6NiyM2pXfhBNh87HwXiZfeUVfPt6Q9wczcWpKkZMeguPlXdAYugavNauPRq2eRpPvTYR744ZhyGdO6Fa9cfx7IxDuJG5Zc6nLrq0LAWd4QqWPj8Q3Ya/jZG9n8DwH8/YaY27WzzRbFg/BEs+1Pij7YieqG1rrER7VADs8dnn+L9WvjBG7cU3Ax5FneBBGPTCePzf6OfRObgNmj/xI/bGeKDxSxMxdXDFArxe0Yj4fQvxTKvWqNl0AHo/9T7efucTjB7YB027TsXuBC80f+F1DMvRKXUiuh8xLBKRDVr4tx6Cl/s3QpCvE5AcjfNHD2Lbnzuw/cApnL+eDo+KTfDkl/OxfdkzN1sVrZyq9cWcTd/jw17V4QsVOkP+wqIZM/Hl5F+wYttFGCq2xsuTxmFg5Vsn8YMmEF3efw+jW/rDIf4C/lq8CAvW/4uoDM1wOmdnOLt5wCOLbKNzMc9Q4pH1mDa30Lq5wd3JDV6emT6ThVONrhjVvRL86vbAqM6lbB88HZ3g7OgML3cbb+zTGGNWLcficZ1Q2ycdV46GYNWcHzB17npsPXYDDlXa4M2Fy7Huk1YIsLFy03Y7OUCXxalvjaMjnFyd4XTLc+Qaxfqo7WfAlWP/YN2i+fjmqzmY++th3AhshpGT52DJ203hcy/3MyKiQqWpUrWaUVG/fJrHWKxcuTIGf5GInkFT4OrgY3kaEd23DKmIi7yKi2ERuJ7kAN9SJVEywBe+Xs6Z5mu2TR8fiXPnwnE1OgWOniVQumI5lPHJZvgXfQpiIsJxITwRToHlULms180AZNTroVeHLI1OZzc45eQ5tzHokaZeJK9x0Np5kXpOuvrkdh83GpAu69BqobP3HKFPQtSFCzh/JRZpzt4ILFceFQNds9yf1m3Sqs9ne9VG9fEMkJGIbG63IRk3wq8g7Mp1JOi8UbpMIAL9POGSk28iERVrSenRWHXmRSx43Q1nz541jWghg9pqpNTjNsPiyEluaFX6Zfi6VDKvhYiIiIiKpRvJ57AtfBJmvpxoMyza/OXe1cEfsWnhlntEREREVFxJ5pPsZ4/NsBjgXgdXE45Y7hERERFRcSWZT7KfPTbDYlnPYFxJPGy5R0RERETFlWQ+yX722A6LXsHQap0RGr3BsoSIiIiIihvJepL5JPvZo5WOLcL01XwTOo0zavn3Mq0gzWCaOZ+IiIiIihHJeJL1JPNJ9hOmPs+mW4qp87OdlkVRy783dFpXHIlaZllCRERERMXFkajlpqwnmS8rdsOig3px49LPqsS5ESdvrLMsJSIiIqKiTrLdqZiNpqwnmS8rdsOiqODdGsFlX8L+yIUMjERERETFgGQ6yXaS8STrZSfLsChqB/RF83Kv4mDUIuyPWMBrGImIiIiKIMlw+yPm40DkL2hW9hXU8u9jeSRr2YZFIStrU+kTRCSfxIYL77GXNBEREVERItlNMlxEcijaVh5vagzMKU2VKlVN/aGtU/5VDqqMTRs3mh/NJF0l0uNRy1Qth8GQglJu9VDSvS68HEvDxcGHc0kTERERFTKZ6zlZlczMIgNuyziKMjyO9HqWziz2rlFs1749zpw5a57mzzLVn2nav9yERSu9MQVhsSEIiwtBZMJR9aGikJAWBb0KkERERERUeHQqGLo7+pum8JOZWWTAbRlH0To8jj32wmKOTkMTERER0f2Jp6GJiIiIipFCOw19IWYr9obPgF4Fxmo+HUxFRERERPc+6eAiJYNwy9iKtobMyddp6GORS7D57FgEulRDhwofMCgSERERFSGS3STDBbpUx5Zzb+N41FLLI9nLNizKynaHfYMGAQPQMHAIHLMZ5ZuIiIiI7j2S4RoGDsYD/v2x69LXpsbAnNDKKWiYpok2Txb93+zR5lPPIWGT0TBgEKr7drYsJSIiIqKiSjKdZDvJeJL1brqZAdUNoyUXKnZbFqUzi1yjWNW7PYMiERERUTEi2a6aT3tT1pPMlxW7YVF6PUtnlrr+vSxLiIiIiKi4qOvf25T1JPNlxWZYlEG3ZXgcuRiS1ygSERERFT+S8STrSeaT7GePzbAos7PIOIrs9UxERERUfEnWk8wn2c8e22ExLsQ04DYRERERFW+S+ST72WMzLMp8zzIzCxEREREVb5L5JPvZYzMsJqVHmabwIyIiIqLiTTKfZD97bIbFhLQo01zPRERERFS8SeaT7GePzbCoN6TAlWGRiIiIqNiTzCfZzx6bYZGIiIiISDAsEtEdEIvDP3+BUaOnYMXJrGcGsC2/ryciooLCsEh0X0rBvokDUa18E5Sv8CAeGrtLxbPcSfhnMjpWbape3xyNh6/AWYPlAcUYtgXjx8zAvLlTMGbidkRaludUfl9/b7Hu6wfx4AsbcMWyNLPUsysxMrgFKlXvhEdfXYXQZMsDRESFzBwWb04cTUT3jeR4RF2PxvVrkdi3aAHWh+fmQHAdW2Ysxc7wG+r1UbgcdWvrnyawHjq1LAdP74po0aE2/CzLcyq/r7/nmPZ1JC5ft50AjTd246Mn3sWCo5FIr9wTH37YE9VcLA/mkzH5Go7/uQ1HcvvbABGRiZEti0T3Nx08/HzgfGUrZi05jVTL0uykn/odM9aGw6VkALw0loUZOQZh2IJNCLu4Hj/0L5P7A01+X1+UJJ/C9yNfxaT9iXCrMwTf/zQKTT0tj+VT+qnFGFC/FYKHzseheLYKEFHeMCwS3de0KN0iGNWd47HnpyUIibcszlIi/vnpF+yI9kTVRhXhZVl6Oy10OltJMqfy+/oiwBCF9eNexpi1EdBW6IKvF45Bp5IFd1jWIAkxMWkwGDNcI0BElEsMi0T3NQO0PrXQMMgJKSfW4PuNUdlelWKM2IqZi04g2asOWtdUr2ODVR4l4fC3r2PEDLUv/R7EuwsmYEhVJ8tjBcOY8XvD7xMR5RHDItF9Ll1TEd37PgBPw1X8MfN3nEq3PGBTOkKXzsPvl4Cy7XuhW0VHtcSG9NNY8800fPrpt5izM9qy0CItDOunTcb48dMxa2uECjSJCF09HS8MGIYeAz/Ej0eSsn69Rdr1UKyf9QVG9R2Eh5p3RfM2wzD4uYmY8Vc4bI4WlhqGTTOnYcKE7zBnRySMhniE/j4bL/YdgFbNH0Onfu9g8sZLSLwZqvSIPrYeX4weiY4tu6BJi4EY9MZP2HLR/lhkOadH2KoP8cR72xDlWgvPzf4KLzdytzxmW86314jIrQvUdk7Bpz/sxJU0tSgtHBu+m2paNmHCdMzZfgq7FszExM+mYfLKUCSaX2hDOs5tmIcvPvsWX/y4D1EMnET3JYZFovuaEXqHEmg2eCDal9IiZvdizNtrPzogfj9+nLsPsc5V0fuZliiRlATJIrcx6nFy1TR89NE8bLqc+RkJOLpkFj75ZC42nrqItWNUWBvwJeas3oZNa7fj3zj1lCxfn4bj349Goxpd8Pgr32He2j3Yd+wUju7ZhpU/zcRr3Tqj5fO/4Xzml2kSceiX6fj44zlYu+8gvh/VB636foo56/biwOEj2PbbzxjzWHd0/XAPbqggeWDaC3iw1Wi8N3cLdh4MxfGDe7Bq2ofo0WI4Ju7J0fl6u+L2TMew55ci1FAWvb6cjI86BkBneex2ud1eA2KPrcOkjydhwuSNCJUkGXcci7+apLZd6jssOgCUSNiObz78Cu99tBh7ZZ/bknQcCz+ciPc+nIPtxgD4FvOrAojINoZFovuc0WCErlwbjOwdBKfkE1g8eydsT/pkxNUNC7D4WCq8gvthWAs/ODtYHrIli1Yo60Mp+3/C23Ouo+nz72L+mgVYOf1JNPayPJrF69NuXEOcd10M/GAqthwJwZWIQ7hyYQOWj22FUtoEHJ83Ae//FmlnFXrE/P0TvgyphLfXbsH58IO4cOwXfNW3ElyNcQiZ+gkmTv0SI9/fBpdeH2KjWv/l8N04tPp1dCzrAMP1EHw1bjGO57Q3UAYaowEJocvw4tCp2BHjjYfemYLpT1SGs+Vxe3K3vTqUbPsiflgyEwunDkZDN7XItwlenj4NS9SyJUu+xtgOpVC1cw+08NMg9fRf+HW/7bSYcPgP/Ho0CdrSrfDEo+WyCLREVJwxLBKR4olmT/ZBU08DLv0+H7+e0VuWZ5B6Cou++xOXEYgOI7qguqN0oMiPeBz+KwzBXy/A0s+H4vE2zdBh0CD0qSPpJisauDcdidV7lmH2650RXNkXHi7OcC9RGZ3GjMcnXfyhMVzFtl8P4JrlFVZG00V80di+NR3PLZyElx4qDz8PN5So2ATPfvslXm7oCiQewZSxCxDV7gOsmD4QD6r1e3qWQJW2ozD7mx6ooI6acQc2YvN5G/soO3F7MXH4R1h6wQn1X/gaP75aHx6Wh+zL/fZ6VAtGly5t0a11EDzkKK/xQt32HUzLpB6q7gFt+dYY+HAANGnn8cfyg2qvZBaPfcs34kSKDpUe7Y02JdmsSHS/YlgkIhPn2t0xokMgcOMf/LDw6G3XscXuXoS5u+PhXLMbRnYMzF9QNIW2FMR6tsKInhWRuyEFHVDl4bao52vj8KUtiWZta6joa0TshfOIuu0cuXxqHSp0fwaDamdqz3Ovgz69a0GuHDS61MTQVx9FJRWIM/Jr0QWPlFXvm3AJR87m/lR0zKE/sPpgPIzuFdG6XS345+gInJ/tzYImEI8MbIVyWj3Ob1qHPTcsy61iDmLFunNIda6GxwY3hq9lMRHdfxgWichMUxKdRnRBDackHP75Z2y9blkujFfxx4zfcDLNA02H9kVwfscB1Ehoc0Tlto+gTtb9OrJnSEfCjasIPRCC3xcvwtL98aYDW3piAhIzNf6ZA64zKtSvBB/T7Ywc4FvWH67qlqZEDQRXlVuZOPkg0NtB7Y80JMTnJpmZ+TQajDcHVoFLwnFMf+Y1TDmQxfWh9uRie7Pj17InHg1yQPr5bVgRcmvb4vWdq7HudDo8GvXAANO5bCK6XzEsEtFNXs3648lmnkg/twEz11yCdXS+1OOrMXNDJDSlH8KIvlVRMAO8uCCwgl8uWxUtjEkIXfMdRj/eAzXLN0CZCq3QoOUg9Bn+Lt7/0XJK9ZZxYyxMadEVfiU9VDS8nZO7G5zUc5z9yqKUrXzk6AE/L3mlAen63I9daHCrjP5ffY332pQAonbgg6HvYen5LLufm+V1e7Pj3QgDH6sGZ/1lbF66N8O1qtewbfE2XDT4oPmgzqiZ3UWVRFSsMSwS0X+cq6LPM61QWhONrd+vxCHTLH6x2D57EfbEO6Dq44PQsbS5fS4/zGtwgre3c+4PQqlnMW94Vzw44AvM3XgaiX410H7AkxgzYTx+WrkQ66Z0VZ9fPc/Uennv0XjUxgvff4Znarkg5fQKjB78Jf66lkXQu6Pb64r6vR9FfTcDwv5eix2WSbiN4Tuw+M+rQKkH8cSj5dmxheg+x7BIRBloUKbTE+hb0wkJ+5dh1l83oL+0GTOWn0OaR0MMG944ixlb7gY9zi35DO8tvYDU0m0x8c/tOHNoGZbNGodxL/VD7w7BqB1w70cbbck2GP/T/6FjoBbx+3/A8BHzcdTmGek7v70utTqhb2NPGMJ2YcV2GZTdgIubVuPvq1pU6tIX7QrglwMiKtpUWDSah1uQL6bTGHk4lUFExYdnAwwd2gBe+jD88eMfWL98Of6OBALbDUSfWpl6fNx1MTi86TAijE6oPWQ0nmrsk+l0cjoiTl1C7M3j2b3LtfZgzJw9FHXd9Lj6xwQMfm0dLt52RvoubK9jJXTp3xC+xgj8vWw3rqRfwqZl+3DNuSp6DmrCji1E9xV1HJFjifl/M3WDLYtElIkTavYdgk5lgCt/zsNnc/YjxjEIvZ99BGULu5Ep/QbOXYpTxy5HePt5qq+ZJP6L1atPIEHdvHmgu2dpEdDuDfz0aTuU1qUidP4YDJ3wD6IzfvB8bq9G5wgHOcqnJSEuyd41ljpU6tgTrQOBq9vWYvOOP7FsdzQ8GnRHf3ZsISKFYZGIbqMp3RpP964Cp9gT2HMyCR5NemFY88I9AW3i4I/qVXzUgSsBh1asxf6Mo9ekhmPd+PGYcTjZdGC7Ry9ZzMQZNZ76FLNfqAMPGRD8i1fw3NzTSLY8mt/t1fqUQlkv9WjCWew8EHWzw1JmmrKtMbhdaWiijmLDrztwLNYHzQY9ilp56n1ERMUNwyIR2eCJZsP6IVjyocYfbUf0ROZhCQuHN1oO741GHkDsrkl4tEl/PPnap3jr+VFo37Q7BsxOQe/R7RFoCk5F5Fo7jS8eee9rfNajJHTpV/DrG8/jzTVXYR4FJ5/b61MXXVqWgs5wBUufH4huw9/GyN5PYPiPZyzrtyqB1oPbIEgbhrXzdiCqZHM80bWCzR7jRHT/YVgkuk9p3dzg7uQGL0/bHSScanTFqO6V4Fe3B0Z1LmX7YOHoBGdHZ3i53z6YjsbREU6uzqahaDLTOTvD2ckBuizynL3XewSPwpyZz+ChMk5IvrgXS2fMxpQft+CwoRHGLp6M0Q/4wNPVCS6uDpnik0atzxXOLq5wsdcnROcKdzdbr7XSwNHVzbQO51z0KzHva1f4eNi55tM5CE9O+xr/a+4L5/SLWPrOh/h2j3kKvrxvr6IJRJf338Polv5wiL+AvxYvwoL1/yJK5ovOxFuFz571PJCuHqvagx1biOg/mqAqVcwzYKkvciMoqDIGf5mEnkFT4Opw+7C1RFRMGPRI0xuh0engoLUTDNRz0lVMtPu4UcYbVOvQaqG75TlG9VIDDOrYIuvPHAqNej3Uy6BVj9leddavF8b0JNwID8OZsAS4laqAyhV84SqJ1vKZ1IeCQ6YXZvu+WbzWyroOe5/LJuu+1qp9ndWLrO+vZN6nednem/QpiIkIx4XwRDgFlkPlsl42Q7xRfU4ZPlI+p45NCUT3jaT0aKw68yIW/M8VZ86chUaua1Elf8qhwmZYHDnZHa1Kvwxfl0qmlRARERFR8XQj+Ry2hU/CzJcSbIZFm787ujr4IzYt3HKPiIiIiIoryXyS/eyxGRYD3OvgasIRyz0iIiIiKq4k80n2s8dmWCzrGYwriYct94iIiIiouJLMJ9nPHtth0SsYWq0zQqM3WJYQERERUXEjWU8yn2Q/e2yGRZ3GGbX8e5lWkGZIsiwlIiIiouJCMp5kPcl8kv3ssRkWRS3/3tBpXXEkapllCREREREVF0eilpuynmS+rNgNiw7qxY1LP6sS50acvLHOspSIiIiIijrJdqdiNpqynmS+rGjNs88bbU5CX8G7NYLLvoT9kQsZGImIiIiKAcl0ku0k40nWy+xmJpQxuNUfdlsWrWoH9EXzcq/iYNQi7I9YwGsYiYiIiIogyXD7I+bjQOQvaFb2FdTy72N5JGvZhkUhK2tT6RNEJJ/EhgvvsZc0ERERUREi2U0yXERyKNpWHm9qDMwpTVBQFVMjo3XKP5nub9OmTeZHM0lXifR41DJVy2EwpKCUWz2UdK8LL8fScHHw4VzSRERERIVM5npOViUzs8iA2zKOogyPI72epTOLvWsU27VrZ5ruL+NUf6bbuQmLVnpjCsJiQxAWF4LIhKPqQ0UhIS0KehUgiYiIiKjw6FQwdHf0N03hJzOzyIDbMo5iVsPjCHthMUenoYmIiIjo/sTT0ERERETFSKGdhr4QsxV7w2dArwJjNZ8OpiIiIiKie590cJGSQbhlbEVbQ+bk6zT0scgl2Hx2LAJdqqFDhQ8YFImIiIiKEMlukuECXapjy7m3cTxqqeWR7GUbFmVlu8O+QYOAAWgYOASO2YzyTURERET3HslwDQMH4wH//th16WtTY2BOZBkW5dRzSNhkNAwYhOq+nS1LiYiIiKiokkwn2U4ynmS97NgNi9KZRa5RrOrdnkGRiIiIqBiRbFfNp70p60nmy4rdsCi9nqUzS13/XpYlRERERFRc1PXvbcp6kvmyopVO0KZZoqVHtOk/86DbMjyOXAzJaxSJiIiIih/JeJL1JPNJ9jMNjGN65L9bwmbLoszOIuMostczERERUfElWU8yn2Q/e2yHxbgQ04DbRERERFS8SeaT7GePzbAo8z3LzCxEREREVLxJ5pPsZ4/NsJiUHmWawo+IiIiIijfJfJL97LEZFhPSokxzPRMRERFR8SaZT7KfPTbDot6QAleGRSIiIqJiTzKfZD97bIZFIiKigmI06KHX62H4bySO3DEaTK/X53kFRJQfDItERHbF4vDPX2DU6ClYcTLrGQ7IjrRQTOnSHCXLdMKzqyIsC3NDj9AfRqFmqYaoO/xXXGZeJLrrGBaJ7qoU7Js4ENXKN0H5LKrSAy9hwQWD5TVUMHK/741hWzB+zAzMmzsFYyZuR6RpKeWWPjUZSfFxSEizLMit5HjEJiYigXmdqFAwLBLdbeoHX9T1aFzPqqKTobc8nQpQLve9JrAeOrUsB0/vimjRoTb8LMszMiZfw/E/t+FIrGUBEVExw7BIVEgCunyAnWf+waVLt9f5g1+ibxn+87xTcrzvHYMwbMEmhF1cjx/6l7ntgJl+ajEG1G+F4KHzcSie50eJqHjiTyOiQmJ09EJgSR/4+tooH0+4OlieSAUud/teC51OY7l9Kw2SEBOTBoORlwwQUfFlCoum34etvxTzl2MiohwxZjxe8thJREWdNRDK/+Y/TPc1lYOqGBXTUvkvqHIQBn4RjcE1F5ueQkQFKQX7PuyDdp8dh1fPr7F7YXeUsjySFWNkCH74YQ+inEuj3RO90MTWxXPR+zFv9g5c1vmj1cC+aFnq9hMHKVf2Y8WcJVj257+4cD0N7mVro8OgJ/DM47UQu+knLNufAE3ZFnj6iUYoYaMxzRB7Guvn/YIFv+3DyYhkOPtXROOOPfD08A6o66uzPMsiNQyb5q5CyDUtSj3cG8NaeOPK7jX4bsZq7DgZiXidH2o+3APPv9gTTQPsN6Pm6j2zlId9n34aa6b+gSPJRpR8eDCGPyjjzxoRuXUhZm+7Dn3sUSydsRGhTrXQb0RHVHeTFzmo7e2LJ5vrsX3uSuyITJeFWXKv0wVPd6sMV8t9cVe/V2lhWD9rGf6JdkRA6954ppUHTq35EZMW7MYFTRB6v/0Gnqxr/nRp10OxZdkqLF+/D8cuxiDVNQBVatbGQwOewLCHS8PZ9KwM0kLxdadeGLfbDT3nrsbCvoGWB26VevUgVs5dhCWbj6vtTVfbWxNt+g3Bs33rIPq7J9D6rT1w7voldi3qiTK2G3qJKB8W/NsPP7/ugzNnz0Cj/oNGfTWVusmwSHQ35S0s6k/PQ7cWH2Crc1vM3DkDg8re/tPSeGkpejd7C3+kB+Pz7fPwfNWMgSAVp34Zh34vrcCJBPPvihqNCpNGg/pX74DSHZ7FW3VC8PY36gdyl8+xc/HjuPUt9Ijc8g0GD5uJ7VHS/UMDrVYDg8F8+lXn3xxvL/oWbzb3lkOMWYaQ0PWbSRh09ku8+O1+XNdroYXh5ph7DmXb4rPlkzDKEkb+k4f3zFIe9n3aSXzVsRfeCfHA4z+txvzeAWqhHqdnDEPL13YizvysTNzReuJK/DYyDZM79Vbbn00XXsfyGDT3F8x4rKTluqDC+F6dxNcd1WcNcUO3qdMw9MQHeGrKMcTLYw5V8NK6lZjwoAOOf/8K+r21HmcS5XOpHyI6LTQGy/iJWnfUemI8lk3qioqO8kKLbMNiGs4ufQ/9Ry/F0XjzZ9Ro1faqzyvbW7LtM3ir/l68I9vLsEh0x2QVFm9veiCie5b8XpcX1zaOVz+Ml6vwoUOZji/jl62bcTb8AC6F/oZl7z8Mp20/YOr6Kyqm2Ba3eyr6DZyO7decUaP/u1h3YCfCr+7D2b2zMK5DKeiidmHC0x9jVXima/dMn9eA2L++w+tzY9Hp84U4eHYfwi9txY65w9HYW4v0sM34eMxyhGYaViXP71nQbtvnOhVgXsQPS2Zi4dTBaCitib5N8PL0aViili1Z8jXGdgiAziEQXd+fiqVLZ95e89/HiMYS1pxQY9j7GN/TGhQL73tl3cyU/T/h7TnX0fT5dzF/zQKsnP4kGnuZH027cQ1x3nUx8IOp2HIkBFciDuHKhQ1YPrYVSmkTcHzeBLz/W+TtuywL17d8hv6jFqugqEP5R1/D4u1/4rxs7+l1WPlRW7jv/hGTVl9EsuX5RHT3MSwSFZLk0NV4d+SbGJm5nh2L9xefLrgfjvH78M24Jfg32QHVhk3BlsUvonujCgjwdINPmRro/MY0bJzVGWknL5oCyG0/6BMPY+qbsxES54K6L87Apu+HonU1f3i4eSCwZhuMWTgdbwW7I+3cOnwz799bPrd5XTewdW04uv/4M2aNDEbVAA94+JTGA33HYOFX7RGofmu9EbIav5/OcLo2H++ZE+mRR7F+5R9Yter22nDoOrIbtsijWjC6dGmLbq2D4CFHUY0X6rbvYFom9VB1D7XMB9UfehiPPto2U7VClWt/YtX+GLg1GI7JHzyMAGtLWSF+r8zicfivMAR/vQBLPx+Kx9s0Q4dBg9CnjiRiDdybjsTqPcsw+/XOCK7sCw8XZ7iXqIxOY8bjky7+0BiuYtuvB3DNvLLsJRzAlHGLcDTJAVWGfI2NPz+Prg3Kwc9DbW+pqujw2hRs+L4bdBeuQP52yNkvIrr7GBaJCkn8sc1YsGD57TV/Ff74N77AfixG716BlcdTAK8mGPHiIyiX8RShiQ5leryCMR18LfdvdX3rQszbnwSHyt3xwesPwjfzKUC3uhjyTDOUQBKOb9yN87dcoidboUGpLi/g9XYl5MRGBlqU69QPj1bQqdBwAQdC/zupm7/3zF70jtl4bvBoDBqUuV7DuyvNQexOSTw0Fy+9+xciPRrj9cmj0crb8oBSqN8rU7N1CmI9W2FEz4pwMS/NQAW6h9uinq+NHxvakmjWtgY81fc79sJ5ROVw8O3oXcux9HAS4NMMo19vb3N7S3UZjf+1lWtFiaiwMCwSFZISrZ/FtLmT8eOPkzLVRLzbvRxu+7mZJyk4s/MgLqtQ4PvgY+hRw85apbNJ3ZKmzgm35oskhG47hHC9BoENmqKKcwqSkzNVSjK0fqXh56CC0IUTOJvhQj7TdS8qdpRvWB2Bto42rn4o46NeaExFXHyKJSDn7z1zwq3Kg+gzoCcGDnwsUz2Kh6t43LkDY+w/mDh6KrbGeqPNux/jpcamHjEWhfu9Ml2YpP7WVW77COq4mxdlyZCOhBtXEXogBL8vXoSl++NN+y09MQGJ2TXNmiTjzI79CFPP9W3WHY9WsdPJSeePug+YO86Y/z4R0d3GsEhUSLQlaqJT3y7o06frbfVoQz/Y+dGZSwm4dDpKxRAtvMuWgpfdn7WO8A7wshFQExF+4TpSVYwLXzUGTcrWR8mSmSqwAWr2+xmnVMgxJMcjLmOznOn93FCmgq/t8OvojZK+Tqab+nTrNXT5fM8ccKvbD599/yVmz/7itvp0cJXbe/QWBOMNbPrwHUzZl4Iy3d/CpGeqZWq9K+TvlYkLAiv42WhVtDCqQLrmO4x+vAdqlm+gvq+t0KDlIPQZ/i7e//Egok3PyWmbeCIunbmmPq95e73t/jRyhJe/p+2/P0R0VzAsEhVnxjTEx0t8cEKJsiXshwATGz/kjalIME3oq4F7yUqoUaOq7apZDbXr1EDt6n5wtXZzzqvCeM87zoDLq8bj5dmhMAT1xMQvH0dQ5vRTyN8rczZ1gre3s+0fDKlnMW94Vzw44AvM3XgaiX410H7AkxgzYTx+WrkQ66Z0RWlZiamFMgcsn9co4bekz50J6ERUIBgWiYoAGTrF9DNYn4rkNNvByJCagpTMp//U65xdpI0yFdfDrmfRESQV0Vdj1ddMNM7w9HRSQUKDEu3fwrrdvyEkxH7tWf8BupkSQz4UxnveYWlnV+L1N37FWW0VDPvqLTxWxsb4kPf090qPc0s+w3tLLyC1dFtM/HM7zhxahmWzxmHcS/3Qu0MwagfkZsxLReMAJ2d5TRqir9xAinmpDWp/XIm5fXuJ6K5hWCQqAjTObnCXlqjk6wi/Ybv3QNLlc7h825B+HihrOgVswI2z52Eads8WYyxOn4w0/UC+NYp6oFKt0nBVr79+5iwi0i2L76jCeM87KPkkZr00Ab9edkbDFz7G+x0yd/Sxupe/VzE4vOkwIoxOqD1kNJ5q7JPpMol0RJy6hFj5QDk+De2OshVLwEm29/QZXLXXKcYQjTMnrNub03UTUUFiWCQqAjRepVC+hA5IuYQdu8Jw+8/VaOxa8ifO3hYQXFG1RV3IZC4xOxZg1g7bPUHi/1mEaZuvW+5l5ISglk1Q0Uk9Z88izNxquirtDiuM98wbjc4RDnIUTUtCXJKt8R4TsW/yOHy4ORpeLZ/DpDebIkPn50zu4e9V+g2cuxRnPmXsZ+P6wcR/sXr1CSSomzmPc66o3voBlFZ/rWN3/4zvd9nZ3r1qe/+0tb1EdLcwLBIVEo0+BYlJ6UhLs136jNnDszraNg1U/2BjsWP6dKw4m/GkXDJOLZ6Id1dGwcFGrxj/hweifz1XFTRP4odXPsHPJ29tfkwI/RVjX12AMA8fyEnBzK1eHk37YviDKuKknsa8197HjL3Rt41DmHb9KOa//wWWnLLXHJY7hfGeeaH1KYWyXuowmnAWOw9EIXNcjN46BS98sQ8Jfi3x1qeD0MDD8oAd9+z3ysEf1av4qL9/CTi0Yi32m6Z2sUgNx7rx4zHjcLLpB0pOL1kUJVoOwMD6sr2nMOfVT7DwxK3bmyjb+/pS3CjhZ9neXKyciAqM+rdt/j3Q9JUt/ER3TeTat9G4TD0EBtqoks3R+evjGa7T8kO7FwejuafkgBV4psWj6Djobbz5xpvo+3AntHzuTwQO6odmtpqtPBrh9a9GqMc0SPh3KUa2aodmXV/F62M+wLBu3dGo1RtYZGiH0X2rIfOEeyZOVTFi0lt4rLyD+uG9Bq+1a4+GbZ7GU6+pgDpmHIZ07oRq1R/HszMO4UZB/SwvjPfMC5+66NKyFHSGK1j6/EB0G/42RvZ+AsN/PIO0q5vxzotzcTBBHWjTTuK7IT1Rr/YjqJ256nZB/6nHzdco3rPfK2+0HN4bjVTYjd01CY826Y8nX/sUbz0/Cu2bdseA2SnoPdo8wPrtETYLHg/g5S9HooWP2t7jS/Fsq/Z4sPsreO2t9/DEo11Rr+X/YZnxETzTM8j29hLRHfFfHFS31P9sWSS6y7RubnB3coSzow7meTdvL/mBq3O49Yeu6wMjMP+Xl9GxkiuMseexfdUifDttBdaHuqLzxzMw85kq8HFxhZuXO5wz/eLn2fxFrFj7MYY19oNDYgSO/Lka0yfPw9Jt4fDq9H9YtfoddCypV8cEDRxcXeGY6ee9U7W+mLPpe3zYqzp8EYPTIX9h0YyZ+HLyL1ix7SIMFVvj5UnjMLCytP9YaeCk1uWsPpNLxsW30MDRTT3u7AxTX4cM8vaeWTPve1d4my4AzRmNo6PaDmc42cpAmkB0ef89jG7pD4f4C/hr8SIsWP8volKS8c8Ps7D2stoH6nutTb6B8PCrtutyBK5lGJiwcL5XgE6+B04O0NnaTsUjeBTmzHwGD5VxQvLFvVg6Yzam/LgFhw2NMHbxZIx+wAeerk5wcXVQn+xWpnW7eZivu83Eq9kLWPrbh3iioS8ckq7i0OY1mDFlAVbsvAKfjv/D0uXj0LmKBzzl73bWXcSJ6A7RVA4KMsr1yJYvCAoKwpCvktAzaApcHThqPlGBM+iRps+U5mzQ6tQPblu/zhlScO38GZy+nACtbyn1b7YsSrjIj2cjDOkG06lQrU4Hrc0f+nrEXz6H02ExSHUpgXIVy6KUl6P64Z6EkHf7oNOXoSjz1A/YMaWV3Wvr9PGROHcuHFejU+DoWQKlK5ZDGR/bw60Y9XrIptr/POo5an/IKXeNVmd7e5XcvGeWLPteoz6Pg70PdAu1T9WHkxFm5DX2ghT0KYiJCMeF8EQ4BZZD5bJecDLqcXPoyGzY3vZ773sljOlJuBEehjNhCXArVQGVK/jCVVZoNCBdVqDRwiHTjrKuO8t9KNsbfh6nL1xHimxv5fIoo7bXRH3fTPvSxrqJKP+S0qOx6syLmP+aK86cPaOWWBsvTLdsh8Vnp7ijVemX4etSybwWIire0s9hRo/H8dpfGrSdtAornylvukaM7kH8XhFRAbuRfA7bwidhxosJNsOizV/MXR38EZsWbrlHRMVdXMgS/BgSB3jUQAe5Bs+ynO49/F4RUUGTzCfZzx6bYTHAvQ6uJhyx3COiIi39ElZ+NQurj0bbGHJHj+i9P2HkM3NwMEmH8l2fRN+aOb+ejwoYv1dEVAgk80n2s8fmaei5K97HjoufokfQZMvTiKjI0p/BtK698Ma2VJQIqoUG9WugbrUA6GLDcHTXLmw/dAUJBi28m47Az8tex8N+vCas0PB7RUSF4NczL6FF+bcw7PH3bZ6G1vn6+r5vfqqZuo/RI9/Ev9dWmp7g51LF8ggRFU1pSIgMx7kz53Hm3EWcPn4Uu7fvwa5//sXpK4nQ+FZHj/99gp+mDEFDb4aPwsXvFRHdXaHRG3A95TyalXsZ835agBvRN9TSW8OizZbFzZs34XDEfJyIWoEOFT6Ao5YjXBEVecZ0xEddRdjlqwi/GguDmy9KVaiIKuV84GzzghQqNPxeEdFdkGZIwoYL76GG/+OoFzgEbdu2y3lvaAmL6WoFq0+OQKBLNTRUKyAiIiKi4mN/xAJEJJ9E9+qz4KB1tRsW7f6OKi9qXPpZhEZvxMkb6yxLiYiIiKiok2x3KmajKetJ5stKlic0Kni3RnDZl7A/ciEDIxEREVExIJlOsp1kPMl62cn26pfaAX3RvNyrOBi1yNRcKee3iYiIiKhokQy3P2I+DkT+gmZlX0Et/z6WR7KWo0ulZWVtKn1iOq8tF0JKzxkiIiIiKhoku0mGi0gORdvK402NgTmlqVw5SLq2mDq4SFUJqozNmzebH81EOr0cj1qmajkMhhSUcquHku514eVYGi4OPpxLmoiIiKiQyVzPyapkZhYZcPtK4mFotc6o5d9LVW+71yhKB5fTZ85YOrdI1xYVFOXP3IRFK70xBWGxIQiLC0FkwlH1oaKQkBYFvQqQRERERFR4dCoYujv6m6bwk5lZynoGo6xXMHQaZ8szbLMXFjliFxERERHZxdPQRERERMVIoZ2GvhCzFXvDZ0CvAmM1nw6mIiIiIqJ7n3RwkdJZxtG2NWROvk5DH4tcgs1nx5pmc5Hp/xgUiYiIiIoOyW6S4QJdqmPLubdxPGqp5ZHsZRsWZWW7w75Bg4ABpmn/OE80ERERUdEjGa5h4GA84N8fuy59bWoMzIksw6Kceg4Jm4yGAYNQ3bezZSkRERERFVWS6STbScaTrJcdu2FROrPINYpVvdszKBIREREVI5Ltqvm0N2U9yXxZsRsWpdezdGap69/LsoSIiIiIiou6/r1NWU8yX1ZshkUZdFuGx5GLIXmNIhEREVHxIxlPsp5kPsl+9tgMizI7i4yjyF7PRERERMWXZD3JfJL97LEdFuNCTANuExEREVHxJplPsp895rBoHpbbdFPIfM8yMwsRERERFW+S+ST7/ZcF1Z+mbGheYrNlMSk9yjSFHxEREREVb5L5JPvZYzMsJqRFmeZ6JiIiIqLiTTKfZD97bIZFvSEFrgyLRERERMWeZD7JfvbYDItERPcqo0EPvV4Pw3+XWWcrL6+5G+7Vz0VElBHDIhEVHWmhmNK1OUqW6YRRqyIsC7ORl9cUmFgc/vkLjBo9BStOZpohoVA/FxFRzjEsEhVLKdg3cSCqlX8QD76wAVcsSzNLPbsSI4NboFL1Tnj01VUITbY8cA/TpyQjKT4O8WmWBTmQu9dEY8PYfqhTsSmqdp6GAzndJxEbMTq4GSpU6Y7nlobBoBYZw7Zg/JgZmDd3CsZM3I5I8zNvysu2EBHdbQyLRMVVcjyirkfi8nXbacd4Yzc+euJdLDgaifTKPfHhhz1RzcXyYCEyJl/D8T+34UisZcFd54Pg9rWgi76B8D3rsPpo1nOmmhkR/tdKrD12DddREW1blDEdXDWB9dCpZTl4eldEiw614Wd+MhFRkcKwSHQ/Sj6F70e+ikn7E+FWZwi+/2kUmnpaHitE6acWY0D9VggeOh+H4gvvQj7vpt3QtaqjaT+t+fUEEi3L7TJewZ9LQhBh1KLMwz3wSBmNebljEIYt2ISwi+vxQ39zgCQiKmp47CK63xiisH7cyxizNgLaCl3w9cIx6FTy3jgUaJCEmJg0GIxyErcQedZBzy5V4IxUnFy7HgfjLcvtMFzYhiU7rwO6Mug4MBgBluVmWuh0lvBIRFQEMSwS3VeScPjb1zFixgkk+z2IdxdMwJCqTpbHCp9lwgCzQu0h7IYHHu+AWq5Aauhm/HowwbLcFj3ObvgNu1RWdKrSDv2acdgxIipeGBaJ7ht6hK36EE+8tw1RrrXw3Oyv8HIjd8tjtqVdD8X6WV9gVN9BeKh5VzRvMwyDn5uIGX+Fw+aIXKlh2DRzGiZM+A5zdkSqvJeK8N3L8d5Tw9GhVTc8+PCTGP7uMuyJTLe8QBgRuXWBes0UfPrDTlyRzh5p4djw3VTTsgkTpqt1RZk6jGRHf3Uv5k2ajs8//w5Tft6L8Hx0HHGt3QE966q0mHYOv684DLuXUKafxx/LDiIGTqjW5VE08rIsF+mnseabafj0028xZ2e0ZWHO2NyWPO3f2xliT2Pdt5/giS690axJVzzU+Xm8+tU6HLmhtzxDMVzH7oWzMPGzaZi07F9kFZdv7F2Orz77Fp/P3IrzqZaFRFRsMCwS3Sfi9kzHsOeXItRQFr2+nIyPOgZAZ3nsdmk4/v1oNKrRBY+/8h3mrd2DfcdO4eiebVj500y81q0zWj7/G85nDmOaRBz6ZTo+/ngOfj96GqvGDkZwxzfxxeLt2HXgXxz6ZzsWf/l/aN/yeXx3xNpxxIDYY+sw6eNJmDB5I0IlhcYdx+KvJqn1SH2HRfvjsm9ojD2Az594Fs+N/QqfLwlH5YcboLSj5bG8cKmG7r3qwgPpOLthHfbZSYvS8rhiX5xKl9XRs3cd9fwMjHqcXDUNH300D5su5yK52tuWPO3fjPSI3PIlOtfrgt5vzsHyvw7h2IlQ7N26HjPfeQEtGjyJz3bFmPe11ht+8dvwzYdf4d0PfsbuGNMKbmeMwOZJX+C9D6dh2SV3+N07DdVEVEC0Nw/AphuFet6HiO4AjdGAhNBleHHoVOyI8cZD70zB9Ccqw9nyuD1pN64hzrsuBn4wFVuOhOBKxCFcubABy8e2QiltAo7Pm4D3f5PWrUxMC1QA/Os7vD43Fp0+X4iDZ/ch/NJW7Jg7HI29tUgP24yPxyxHqCk/6VCy7Yv4YclMLJw6GA3d1CLfJnh5+jQsUcuWLPkaYztkFWyVpFOY9fTzGL89Gs7VemPaknfQrUyWr8gBR1R79FE09gLSz/6N5XtspaVUnPhtnemaRo8HOqNHbVfL8gxye1jNbltyvX//E7d7KvoNnI7t15xRo/+7WHdgJ8Kv7sPZvbMwrkMp6KJ2YcLTH2NVuLTj6lClay88HKhB+rm/scLm9qtPcnknlm6NhMGjDvr2k3BNREWV+XClvlqOW9b7bFkkKu7i9mLi8I+w9IIT6r/wNX58tX4OfqBr4N50JFbvWYbZr3dGcGVfeLg4w71EZXQaMx6fdPGHxnAV2349gGuWV1iZDy43sHVtOLr/+DNmjQxG1QAPePiUxgN9x2DhV+2h8gduhKzG76fNp0s9qgWjS5e26NY6CB5yVNJ4oW77DqZlUg9Vz+ITp13Ckpeexf+tjYCuUjdMXvoh+lR0sDyYPw5Bj6BPsA+gD8PGZftx3bL8pqSTpt7SCWqPNuzVATXzO/RQDrYlL/vXJPEwpr45GyFxLqj74gxs+n4oWlfzh4ebBwJrtsGYhdPxVrA70s6twzfz/oUMuKQp2xqD25WCVn8Zm5cfUO+amR7n16/C1ggjfJs9hsdqslmRqDhiWCQq5mIO/YHVB+NhdK+I1u1qwT9H/+odUOXhtqjna+PJ2pJo1rYGPFVsib1wHlG3nV2VOKNBqS4v4PV2JdStjLQo16kfHq2gAxIu4EBonGV5Hqi3MRqisOHt5zB64XkYynfCl8s+xeCC7LCjK4f2fRrCT4Wii5vXYlemZJx4ZD1+lXEYfRui36OVkOez3rnalrzt3+tbF2Le/iQ4VO6OD15/EL6ZO2i71cWQZ5qhBJJwfONunDflzBJoPaQdqjjI9v+GnZl/M5DrOZeoEKkJwMPqeUEFk9GJ6B7DsEhUzPk0Gow3B1aBS8JxTH/mNUw5kO2ogbczpCPhxlWEHgjB74sXYen+eNPBIz0xAYkZ+kQIjSm+uKB8w+oItHWEcfVDGR+VKoypiItPMUWfvNAnXcFfn76AYdOOI6VUG4xf8gWeynfTXmZalG/XA61LamC4tAPLZHicmxJxcOVG/Jusgf+D3dC+Ut5Pe+dmW/K2f5MQuu0QwvUaBDZoiirOKUhOzlQpydD6lYafemnihRM4a8mZ3k0fw2O1naEPU9u/49a0KNdrLt8bC12FR/BEu5KZgisRFRcMi0TFnMGtMvp/9TXea1MCiNqBD4a+h6XmZqOsGVXAWPMdRj/eAzXLN0CZCq3QoOUg9Bn+Lt7/8SBMfXtvGevGwpQY3NTzfW23tDl6o6SvucVMn57X8RT1iPrtMzz92T+I82+B9xd/g+fr2bhesABoyjRHn4cCoDFexd/LQnBzFue4I1i17ixSpVVtQGuUz/PRNJfbkqf9m4jwC9eRqqJj+KoxaFK2PkqWzFSBDVCz3884pf5qGJLjEWft1exeB/3614WHIQJ/L//nv+1HMo6s+A0H4h1RrcfjaMnpaYiKLYZFovuAxqM2Xvj+MzxTywUpp1dg9OAv8de1LNr0Us9i3vCueHDAF5i78TQS/Wqg/YAnMWbCePy0ciHWTemK0hJaNIXVlpSK65euIkYyr9YBDg538nME4KG+LVFOK1P6/Ya/r5j3W8ze3/D7qTToyrdCv4cD89Gqdhe2xZiKhAS5XkAD95KVUKNGVdtVsxpq16mB2tX94Gqw/v1wRI3uPdHMx4Dwv9fc3H7EH8OqNaeQ5FYTvfvXxz0wARAR3SEMi0T3CW3JNhj/0/+hY6AW8ft/wPAR83HU5hlpPc4t+QzvLb2A1NJtMfHP7ThzaBmWzRqHcS/1Q+8OwagdkN+exvnliqpDxuLTvuWgvfo3xvV9DbOP254DuyD4teiGdhV1MEbswfK/I2BENEKW/o2z6TpUaNcNLf0tT8yTu7AtGmd4ejqpqKhBifZvYd3u3xASYr/2rP8A3Uy/DZjpgtphyCMBwFXr9gOx+3/Dr+pzejV5DH3q3gOTihPRHcOwSHQfca09GDNnD0VdNz2u/jEBg19bh4u3nZGOweFNhxFhdELtIaPxVGMf3NpvIR0Rpy4hVhKDrdPQd4mjfx08/e10fNLBH4awjXijz/9hvmmQxjvAtyH6dqwAB2MUtquQeO7yP1i88TL0jpXwaL+G8LU8La/u/LZ4oFKt0iqWGnD9zFlE5OAqhFtoSqLd4NYop7mGHct34bIhGrsWbcGZtBJoNaQ9ZBptIiq+GBaJ7itaBLR7Az992g6ldakInT8GQyf8g+iMmS/9Bs5dkkGwHeHt53n7dXGJ/2L1ahkuRmVF85ICo9E5wkGOSmlJiEvK5npGjQYa91p4fu5UvNXcC2nnfsPLfcZh8ZlcDH6dY15o0qsNpHPytT2/Y+Wy9dgapodLjfbo1agATsDe8W1xQlDLJqioPn/8nkWYuTV3s8kIv9a90bOaA6K2rcba7X/h501hMJZrjSc6luUPEqJijv/Gie47zqjx1KeY/UIdeBjjEPLFK3hu7mnTuHomDv6oXsVHHRwScGjFWuyPtywXqeFYN348ZhxONh08CvqSRa1PKZT1UmtOOIudB3I2xZ/Gpwnemv8FRtZxRfKpFXi+z3tYcXtzab55NHwU3Wo6w3j9X/yx9jCuGlxQu0dnNCjAUajv5LZ4NO2L4Q96q+/hacx77X3M2BuNTB3ZkXb9KOa//wWWnMr8iOJZH30frw6XGwewdOYKbL2kQZAM2h1geZyIii2GRaL7kcYXj7z3NT7rURK69Cv49Y3n8eaaq5bw4I2Ww3ujkQpBsbsm4dEm/fHka5/iredHoX3T7hgwOwW9R5sHflYrMr2iwPjURZeWpaAzXMHS5wei2/C3MbL3Exj+45nbgk1GutJtMeHnj9CvsiOSTizGs70/we/hWb0iD9xroWe3anBLj8DWv0OR6lEHvR6rgYLug33HtsWpKkZMeguPlXdAYugavNauPRq2eRpPvTYR744ZhyGdO6Fa9cfx7IxDuGHz2+qK+n16qL8X0di2fBvCnarhsQGN1N8WIiruGBaJiimtmxvcnVzh42HngjLnIDw57Wv8r7kvnNMvYuk7H+LbPebB9TyCR2HOzGfwUBknJF/ci6UzZmPKj1tw2NAIYxdPxugHfODp6gQXV4dMcVEDJ1dXOLu4wsVuHxgNHN3U487OcM78HE0gurz/Hka39IdD/AX8tXgRFqz/F1EZLt/TyevcPJB5s5yrPIapP7+FR8u7Iu3MGox7eTr+ijS3TVpf456va+tcUKdndzQu4QhnJxeUbNkD3WrYGjT7VhpHR7VPnOFkI4Dlflvyt3+dqvXFnE3f48Ne1eGLGJwO+QuLZszEl5N/wYptF2Go2BovTxqHgZVtr9ypekcMfNDHdNujYXf0feDODFdERPcWTaXKQUa5SN0opf6rEhSEIV8lo2fQFLg6mA8KRFQEGfRI0xuh0ergoMuiBdBoQLp6ntBotdBp/3uuMT0JN8LDcCYsAW6lKqByBV+4yq+Y1tdotLet26jXQx7S6nTIsKpbGNVn06vsI59NZ+tXVn0KYiLCcSE8EU6B5VC5rNfNsGVdv0at39ZmWR8X1udk95qcM6rdaoCMKpN5X9mW4fk23js/25Kv/avo4yNx7lw4rkanwNGzBEpXLIcyPs5ZtyCkn8XMx/vg1c0atJ+yHMufqpD1nN1EVCQkpUdj1ZkXMe81F5w5c0b9yqn+k+uM5Hpq+aNS5cqSE9XRxRwYg6oEYdQUD7Qq/TJ8XSqZ10JERPe9xH++QYfOU3HIpyvmbvsGvUvZSatEVKTcSD6HbeGT8N2L8ThzWoXFm0HRHBZt/hLp6uCP2LRwyz0iIqJobJv7K44kOaN2/yHoyKBIVGxI5pPsZ4/NsBjgXgdXE45Y7hER0f3NgBtbZ+OjJRegD2iJF0c24owtRMWIZD7JfvbYDItlPYNxJfGw5R4REd2PIjZ9ixdf/gj/Gz4YLXrNwL6kkuj+wRj0rcgrFYmKE8l8kv3ssR0WvYKh1TojNHqDZQkREd1vjDeOY80PP+K7xXtwSVcF/T6fge+GVoaz5XEiKvok60nmk+xnj82wqNM4o5Z/L9MK0gxJlqVERHQ/8eswBr/+8RPW/vkHQk/9hjnP1oU3L1UkKjYk40nWk8wn2c8em2FR1PLvDZ3WFUeillmWEBHR/cTBuyzqtWiBh5tWQSkPnnomKm6ORC03ZT3JfFmxGxYd1Isbl35WJc6NOHljnWUpERERERV1ku1OxWw0ZT3JfFmxGxZFBe/WCC77EvZHLmRgJCIiIioGJNNJtpOMJ1kvO1mGRVE7oC+al3sVB6MWYX/EAl7DSERERFQESYbbHzEfByJ/QbOyr6CWfx/LI1nLNiwKWVmbSp8gIvkkNlx4j72kiYiIiIoQyW6S4SKSQ9G28nhTY2BO2Zzub8vmzeZHM0lXifR41DJVy2EwpKCUWz2UdK8LL8fScHHw4VzSRERERIVM5npOViUzs8iA2zKOogyPI72epTOLvWsU27Rta3O6v1yFRSu9MQVhsSEIiwtBZMJR9aGikJAWBb0KkERERERUeHQqGLo7+pum8JOZWWTAbRlHMavhcYS9sJij09BEREREdH/SVKpU2dKwqL5m07KY8TS0MfQkyobEocyeOHhfSIFrVBrcrqVZnklEREREhSHRzxFJ/g6IqeCCy009ERbsCU216jk+DW1uVVR/yH9aVTkNixditmJv+AwY9+9DrWWRqqIsjxARERHRvex4b39VAdA0bGQaW9HWkDn2wmKOTkMfi1yCzWfHouz0P9FtxEkGRSIiIqIiRLKbZDjJclvOvY3jUUstj2Qv27AoKws5OR5NPz2B4MlhcErQWx4hIiIioqJCMpxkuSbj/8XuE5+YGgNzIsuwKKeeQ8Imo6lacZ1FkZalRERERFRU1VkciaZTwkwZT7JeduyGRenMItco1vrhjGmlRERERFQ8SCNg7TlnTVlPMl9W7IZF6fUsnVkafH/FsoSIiIiIigvJeJL1JPNlxWZYlEG3ZXgc6fXMaxSJiIiIih/JeJL1JPNJ9rPHZliU2VlkHEX2eiYiIiIqviTrSeaT7GeP7bAYF2IacJuIiIiIijfJfJL97LEZFmW+Z5mZhYiIiIiKN8l8kv3ssRkWk9Kj4H0h2XKPiIiIiIormbZZsp89NsNiQloUXKPSLfeIiIiIqLhyjUozZT97LGHRNDu06avQG1Lgdi3Nco+IiIiIiivJfJL9hDUL3qQW2GxZJCIiIiISDItEdN8zqIpWdUpVmKpYVbf9dk1EdJ9iWCSiQnNcVUVV/rmoRqqsV9b8o6qcKlvPs1ZJVT+qskVmRO2kylNVCVXVVMn6fFSVV/WFqoys79dAVbgsyIc/VJVRVUrVr7KAiOgexbBIRIVKWvSu5aLk+RnJzPW2npexMs9DJfffVPWIqvWq5AptCW61LH/qVEkL4xlVmcn7XTbfzJefVEngvKpqjipp3SQiuhcxLBJRoamh6qyqjMFOZqPvrUq8qkqW3chQB1T5qcooUNV+VRnXY60IVQNVZTRb1ZeqNKrGqZL3vKTqmCoJiRJIF6mqrOpOuKhqo6qqqgJU/a3qtCoionsRwyIRFRo5AMnp34wlp42t3FTJMjktbC0vVRLyMpLrC+V1mddlLVdVVomqZqqSlrwRqj5SJc/JyF1VP1VvmO4VvDWqJMQ+oKqequuqVqoiIroXMSwS0X0lXpWc/pXA+agsuMtkcIoFquTgK4FUSj6LtGRKkCUiutcwLBLRfUUOelLSGnlCFtxlB1XtU1VWlVwz2U2VnEY/osr+zKxERIWHYZGI7ityyll6M4tJqk6ab941P6tKUtVBlYRECY1y29riSER0r2FYJKL7ihz0JqqSoCadWZqp+l7V3ZjgVDrcrFLlpGqQLLCQ29ID+3dV0tmGiOhewrBIREVesqoxqobZqLdVyeMZ1VYlHUpkjEfp+fyMZdkKVXdyCJvNqs6rkl7QwbLAooWqKqpkSJ51soCI6B7CsEhERV6cKhl421atVWVrNpYHVe1V9bwqaekLVdVLlSzfo6qgSQiVsRXlz8dVyUDgVt6qeqqSzzlfFWfmJ6J7SaawqA5Vto6qRET3MBl3UcZO/MVGydA4jqpskdd9q0pmkumvSk4FSyeTh1RNUVWQh0MJozJjjAzLI6E0sz6qZIif3aqOygIiokIhR77/jn5yiy2LRFTkyYGsiyoJfJlLehs7qMpKkCoJljKdX0NVctpaBgRfqKqgLFMVo0pON8u4itsylTwmn0OG9lmsiojoXsGwSERkIb2kJbjJ+IsyJeDrqgpiar8EVdYAeEiV9H5unak6qrK2KMq1k5mnNSQiKiwMi0REGcisMeMtf8q8zXJdY37tUiVTCcp1im1VSVi0Ve1Vuag6pUpCKxHRvYBhkYgok/Kq/FXJtTrSKphf1k4r0nooc0Kvt1PSE1qeI8P4SGeYgrxmkogorxgWiei+ItcEyniHWbmgKkqVdIwpLQvywTocjhxsB6jKPK91RtLB5glV8pwtqs6pIiIqbAyLRFTkSbiSeZWl9c5WyfWHVhICO6v6SlWkLMhEThc/rUrWV0dVE1WZ5eb9ZOgeGWhbZmp5WBZko42qCqrkc8oA3kREhY1hkYiKvAhVMqi2h52SOZhTVQkJenJN4P9UlVJVWZWEOBkuR27XU7VflTw2S5UMdZNZdu/3iioh7ymnoIVckxhgvpklGc6nu/mmqYe2TA1IRFSYGBaJ6J4jgUvGHJTOHlmRA5g811mVhEBbJTIOnSOBTYKiDGEj5FTv36pkDES5LZ1QpGVROrZkblWU95PwKIN4Z8U6C8xhVRJMvVTJKeicGqjKR5XM9nJQFhARFSJNpUqVjUao/+SrqipBVfDE18kY0P4fuF2TEypERHeXnMaVwCXhTK7jy0pOjlL21hOrSq5PlHEPfVVJa2IJVVm9Z07mkJb3k5IOKvJ8Ca3ZjfWYmfVUtqzHGnqJiO6ERD9H/LKxCea95oLTp09Do9GYS44+6k85Dt3G3dEfSf725jwgIrqzJKzJESi7oCjkedmVvfVIi19dVXIKWk4/S6tjdu8poS+7sh5YJeTJ+8uy3JLPIcWgSER3WpK/gyn72WMzLLo6+COmgpzYISIiIqLiLKaCiyn72WMzLAa418HlphmnuSciIiKi4kgyn2Q/e7SmQV8zjfxa1jMYYcEMi0RERETFnWQ+yX4386D8qcp612bLYlmvYGiqVcfx3vabJImIiIioaJOsJ5lPsp89NsOiTuOMWv691AoCkOqek0vMiYiIiKgokYwnWU8yn2Q/e2yGRVHLvzc0DRvhwNMymAQRERERFSeS8STrSebLit2w6KB1RePSz+LY8Mo42j8n8w4QERERUVFwtF8Ajj8VZMp6kvmyYjcsigrerRFc9iXsebGsaaVEREREVLRJI+Cel8qaMp5kvexkGRZF7YC+aFbjbfwztiZC1Ip5DSMRERFR0SMZTrLcnrdqILj6WNTy72N5JGvZhkUhK2tT6ROEPfcI1sxiL2kiIiKiokSym2Q4yXJtK483NQbmlKZipcoyKTSs80PL3NBbtmy2PHyrdEMSjkctU7UcxtCTKBsShzJ74uB9IRmuUemcS5qIiIiokMlczzJts8zGJwNuyziKMjyO9HqWziz2rlFs06YtTp85bZoTWuaGlnmhTXNE5yYsWumNKQiLDUFYXAgiE44iKT0KCWlR0BtSLM8gIiIiosKg0zqb5nqWKfxkZhYZcFvGUcxqeBxhLyzm6DQ0EREREd2f8nwa2mBIQSm3eijpXhdejqXh4uCjEqyP5ZlEREREVBiS0qORrCo2LRxXE47gSuJhaLXmCVfu6GnoCzFbsTd8BvQqMFbz6WAqIiIiIrr3hUZvMJXOMo62rSFz8nUa+ljkEmw+OxaBLtXQocIHDIpERERERYhkN8lwgS7VseXc2zgetdTySPZMYdFo/WK6cStZ2e6wb9AgYAAaBg6BYzajfBMRERHRvUcyXMPAwXjAvz92Xfra1Bh4G0sWzBgJs2xZlFPPIWGT0TBgEKr7drYsJSIiIqKiSjKdZDvJeJL1smM3LEpnFrlGsap3ewZFIiIiomJEsl01n/amrCeZLyt2w6L0epbOLHX9e1mWEBEREVFxUde/tynrSebLis2wKINuy/A4cjEkr1EkIiIiKn4k40nWk8wn2c8em2FRZmeRcRTZ65mIiIio+JKsJ5lPsp89tsNiXIhpwG0iIiIiKt4k80n2s8dmWJT5nmVmFiIiIiIq3iTzSfazx2ZYTEqPMk3hR0RERETFm2Q+yX722AyLCWlRprmeiYiIiKh4k8wn2c8em2FRb0iBK8MiERERUbEnmU+ynz02wyIRERERkWBYJCK6J8Ti8M9fYNToKVhxMuvZFIiI7iYVFs1TRWecMJqI7kcp2DdxIKqVb4LyFR7EQ2N3qfiSOwn/TEbHqk3V65uj8fAVOGuwPFDkZNgXGUttV40GPdCx9xv4eMm/iNZbnl4AjGFbMH7MDMybOwVjJm5HpGU5EdHddmsmNLJlkYgySI5H1PVoXL8WiX2LFmB9eG5+jbyOLTOWYmf4DfX6KFyOKuKtY9Z9kbHUdl0KPYbt61ZgwrCeqNN2Iv68XjC/amsC66FTy3Lw9K6IFh1qw8+ynIiosDEsElEmOnj4+cD5ylbMWnIaqZal2Uk/9TtmrA2HS8kAeGksC4uBgC4fYff5vbh8eR/Czm3FwZ1zMenZpijtpEf0P9/juf/9jssF0YLqGIRhCzYh7OJ6/NC/DA/ORHTP4PGIiDLRonSLYFR3jseen5YgJN6yOEuJ+OenX7Aj2hNVG1WEl2VpcWB09IC/vze8vb3gE1AaVeu3wjNf/YBF/9cAHtDj4t/rEXLN8uR800KnK0ZJm4iKBYZFIsrEAK1PLTQMckLKiTX4fmNUttc0GyO2YuaiE0j2qoPWNdXriv1F0K6o1a45KjmpbY+5iNCraZblRETFD8MiEd0mXVMR3fs+AE/DVfwx83ecSrc8YFM6QpfOw++XgLLte6FbRUe1xL6066FYP+sLjOo7CA8174rmbYZh8HMTMeOvcNgc5SstDOunTcb48dMxa2sEjMZEhK6ejhcGDEOPAWPx3sRpmPjZNExa9i8SLC+x5cbe5fjqs2/x+cytOJ/Tc+tZ0CfGI0kPaDxKoaK/o2XprQyxp7Hu20/wRJfeaNakKx7q/Dxe/Wodjtyw0TMm/TTWfDMNn376LebsjLYsvF3Klf34ZcJY9O3UC82adkfbx/4PExYfQWSaHqfXzcHECVPx+U/7YO9Sylx9JiIihWGRiDIxQu9QAs0GD0T7UlrE7F6MeXsTLY/ZEL8fP87dh1jnquj9TEuUSEqC7Xa2NBz/fjQa1eiCx1/5DvPW7sG+Y6dwdM82rPxpJl7r1hktn/8N5297cQKOLpmFTz6Zi42nLmLtmAFoNeBLzFm9DZt+/wcRN3bgmw+/wrsf/IzdMZaXZGaMwOZJX+C9D6dh2SV3+DlZludZNPatDUGYXovSD3dF65KWxTfpEbnlS3Su1wW935yD5X8dwrETodi7dT1mvvMCWjR4Ep/tirm1xdaox8lV0/DRR/Ow6bKtPZiKU7+8iQfr98PTHy/G2m2HcPT4CYRsWIaPh/fBg30nY4ta/5cff4Mpq8/j9u5FefhMREQKwyIR3cZoMEJXrg1G9g6CU/IJLJ69E7YngjLi6oYFWHwsFV7B/TCshR+cHSwP2ZB24xrivOti4AdTseVICK5EHMKVCxuwfGwrlNIm4Pi8CXj/t8jbAov1fsr+n/D2nOto+vy7mL9mAVZOH4a2HXvi4UAN0s/9jRV7bKdFw+WdWLo1EgaPOujbry48LMtzQmM0QJ+hA4s+7gx++/hVjJhxEqjSHR+/1wGlM11mGLd7KvoNnI7t15xRo/+7WHdgJ8Kv7sPZvbMwrkMp6KJ2YcLTH2NVeKaeMVkktWsbx6P/6OU4kaBDmY4v45etm3E2/AAuhf6GZe8/DKdtP2Dq+it2OyTl+TMR0X2PYZGI7PBEsyf7oKmnAZd+n49fz9g4TZl6Cou++xOXEYgOI7qguqMKV5aHbqeBe9ORWL1nGWa/3hnBlX3h4eIM9xKV0WnMeHzSxR8aw1Vs+/UAbPcXicfhv8IQ/PUCLP18KB5v0wwdBg1C3zbtMLhdKWj1l7F5+QHcsDz7P3qcX78KWyOM8G32GB6rmbtmxRtbv0bP4EfRpHEn1K3WBKXLd0b/L46hzKBxWLpGBbigTKegEw9j6puzERLngrovzsCm74eidTV/eLh5ILBmG4xZOB1vBbsj7dw6fDPvXyRbXpal+H34ZtwS/JvsgGrDpmDL4hfRvVEFBHi6wadMDXR+Yxo2zuqMtJMXTWHxtsx5Jz4TEd03GBaJyC7n2t0xokOgSkz/4IeFR5H5ZHTs7kWYuzsezjW7YWTHwCyConBAlYfbop6vjcOOtiSata2h4qkRsRfOIyrzWVijxJ8UxHq2woieFeFiXmpRAq2HtEMVBz0ubv4NOzMnzbRz+H2JCpGaADysnheURcunLek3LuH48VAc//c0zl6ORkKaAUZ9DI6vX4rJk1Zhf8ytLXHXty7EvP1JcKjcHR+8/iB8M+8Ut7oY8kwz9amTcHzjbpzP8npQs+jdK7DyeArg1QQjXnwE5W67RFKHMj1ewZgOvpb7t7oTn4mI7h8Mi0Rkn6YkOo3oghpOSTj888/Yet2yXBiv4o8Zv+FkmgeaDu2LYE/L8pwypCPhxlWEHgjB74sXYen+eNMBKT0xAYmZGzE1km4cUbntI6jjbl6UkXfTx/BYbWfow3Zg2Y5b02Jq6GYs3xsLXYVH8ES7ktkE2tsFPPoONu7fhMOHN+PAPyuw/tdpmPK/dqiYcgrrvxuLDg+/hWUXrB84CaHbDiFcr0Fgg6ao4pyC5ORMlZIMrV9p+KnQmnjhBM7GWV5qVwrO7DyIyyrA+T74GHrUsN2ZBjo/1KxbEs7q5q3beCc+ExHdTxgWiShLXs3648lmnkg/twEz11yCtR0t9fhqzNwQCU3phzCib1Xk6OSuUQWXNd9h9OM9ULN8A5Sp0AoNWg5Cn+Hv4v0fD8LUB9jUimiLCwIr+GVqVbRwr4N+/evCwxCBv5f/gwjLYiAZR1b8hgPxjqjW43G0zMO0KEanEqhcvSKCgiqgWq16aNmuI556/1vs2D0VT9VwRlLoKrz7yZ+IMH3sRIRfuI5UGBG+agyalK2PkiUzVWAD1Oz3s6mHuSE5HnHZ9sxOwKXTUSoyauFdtlQWA547wjvAS33N7E58JiK6nzAsElHWnKuizzOtUFoTja3fr8QhUzfbWGyfvQh74h1Q9fFB6Ji5h4ctqWcxb3hXPDjgC8zdeBqJfjXQfsCTGDNhPH5auRDrpnQ1dxQxtSLeyrzECd7eznYOWo6o0b0nmvkYEP73Gvx9xRI4449h1ZpTSHKrid796yO3jZ9ZcSjTFq+/1Aw+0OPC1s04JBNpG1ORkCDn0DVwL1kJNWpUtV01q6F2nRqoXd0PrgZ74djCmIb4eIl6TihRtoTtsHyTjXXdic9ERPcVy3GXBwYiskeDMp2eQN+aTkjYvwyz/roB/aXNmLH8HNI8GmLY8MY5mLFFj3NLPsN7Sy8gtXRbTPxzO84cWoZls8Zh3Ev90LtDMGoH6CzPzRtdUDsMeSQAuLoHy/+OMB3VYvf/hl+PJ8OryWPoUzfrmJV7WpQIqgh/9bENNy7h7HWD2lXO8PR0UntMgxLt38K63b8hJMR+7Vn/AbplF7Q1Wji7yIWWqbgedj2LziepiL4aa+rgcos78ZmIqJjKmAfltir1P1sWiSh7ng0wdGgDeOnD8MePf2D98uX4OxIIbDcQfWrZuYbuFjE4vOkwIoxOqD1kNJ5q7INb+5mkI+LUJcSajk0ZD1a5oCmJdoNbo5zmGnYs34XLhmjsWrQFZ9JKoNWQ9qiak4+ZK0bEXAzDdblc0dkD3i5yOPVApVql4QoDrp85i4gC6SjigbIVfOGo1nnj7HlE2eiUbmKMxemTkaaweOsevBOfiYjuJwyLRJQDTqjZdwg6lQGu/DkPn83ZjxjHIPR+9hGUzUkjVPoNnLsUp0KMI7z9PG+/ri7xX6xefcI0A0seo6KJX+ve6FnNAVHbVmPt9r/w86YwGMu1xhMdyxb8wS7uAObM3A3p8+NdtwUaBchCJwS1bIKKTkD8nkWYudX+TCw554qqLeqilNqAmB0LMGuH7d4n8f8swrTNGXsgWd2Jz0RE9xOGRSLKEU3p1ni6dxU4xZ7AnpNJ8GjSC8OaZ38C2sTBH9Wr+KgDTgIOrViL/fGW5SI1HOvGj8eMw8mmA5KNSxZzzrM++j5eHS43DmDpzBXYekmDoK698LApyOWNRp+KxKR0pKVJpSL++lUc3zQHIzuNwOf/qHjrUh1D3+iGqpamUo+mfTH8QW+1Xacx77X3MWNvNDI3BqZdP4r573+BJafsNRPeyv/hgehfzxVIOYkfXvkEP6v9n1FC6K8Y++oChHn4QE7mZ96Fd+IzEdH9g2GRiHLIE82G9UOw5EONP9qO6InaMk5Ljnij5fDeaOQBxO6ahEeb9MeTr32Kt54fhfZNu2PA7BT0Ht0egaaUk5+06Ir6fXqo94nGtuXbEO5UDY8NaKTePe8i145F4zL1EBioKqAeSldoiSY9PsGCg9EweFTFE99OwwcPZ3gHp6oYMektPFbeAYmha/Bau/Zo2OZpPPXaRLw7ZhyGdO6EatUfx7MzDuFGTjfVoxFe/2oEmnlrkPDvUoxs1Q7Nur6K18d8gGHduqNRqzewyNAOo/tWU3vAhjvxmYjovsGwSEQ3ad3c4O7kBi9P251NnGp0xajuleBXtwdGdS5l+wDi6ARnR2d4ud86mI5H8CjMmfkMHirjhOSLe7F0xmxM+XELDhsaYeziyRj9gA88XZ3g4upwW1zUOTvD2ckBuhwEGafqHTHwQR/TbY+G3dH3AZvxKVvmfeGotkUHjUZjLq0DnN08ERBUH91e/Ajr9q3CdwMqmcY2zMipWl/M2fQ9PuxVHb6IwemQv7Boxkx8OfkXrNh2EYaKrfHypHEYWPnW/axxdISTqzOcbGynZ/MXsWLtxxjW2A8OiRE48udqTJ88D0u3hcOr0/9h1ep30LGkHka19xxcXeGYaR15/UxERJqKlSoZFfM15epLlSpV8MTXyegZNAWuDuYDLhHdJwx6pOlV3NDp4KC1k8zUc9JVTLT7uNGAdFmHVgudjecY05NwIzwMZ8IS4FaqAipX8IWrpE7L66T3r0OmVGjU6yEPadXnsve2N6WfxczH++DVzRq0n7Icy5+qYDo1m2tGtZ02zsja2y579PGROHcuHFejU+DoWQKlK5ZDGR9bQwAZ1a41QEatkf1vPxjrEX/5HE6HxSDVpQTKVSyLUl6OKiImIeTdPuj0ZSjKPPUDdkxpZbdFNeefiYjuB0np0Vh15kXMe9UZp0+fUQch+QVZ/pBxFDS2jw3ujv5IVi8kovuMVgdHRwf7QVCo52T5uIQ9BxV27DxH4+CKEuWroknzB1C7kiUomh4wvy5zUBSm8Koey0lGSzywCj/ujIG2dEsM7VI+b0FRaMzvmblyExSFziMAVerWR4tWTdH0gSooZzeUqQOyZTuzbkHVwaNMFTzQtBGa1quE0qagqKRfxf5/LiMVHgh6oKL6al/OPxMR3Q8k80n2s8fm8cHVwR+xaeGWe0RERUU0ts39FUeSnFG7/xB0LJW7YFeUxYUswY8hcYBHDXRoWSrvIZmI7juS+ST72WMzLAa418HVhCOWe0RERYEBN7bOxkdLLkAf0BIvjmxUoDO2FKr0S1j51SysPhoNmYvlVnpE7/0JI5+Zg4NJOpTv+iT61izwQSWJqBiTzCfZzx6bYbGsZzCuJB623CMiundFbPoWL778Ef43fDBa9JqBfUkl0f2DMehbsRi1rWlScXn9txjQrAWC6vdG9yFjMeaDrzHuf6/j8ZYPo/ojH+LX8+nwbvoMZnzeyTxtIhFRDknmk+xnj+2w6BUMrdYZodEbLEuIiO5NxhvHseaHH/Hd4j24pKuCfp/PwHdDK9/WQ7lI03igdsf2aFHRCbFnDmLzisWYPPFbfP3dSqw/EIE0nxp4fNx0bF37Bh72Y1IkopyTrCeZT7KfPTZ7Q2/ZshmHI+bjRNQKdKjwARy1eRt6gojoTkuPCcPxo+dx3bEkatSqhFIexfhqPWM64qOuIuzyVYRfjYXBzRelKlRElXI+cGYPFSLKpTRDEjZceA81/B9HvcAhaNOmjc3e0HbDYrpaweqTIxDoUg0N1QqIiIiIqPjYH7EAEckn0b36LDhoXe2GRRu/i0pqhOlFjUs/i9DojTh5Y51pGREREREVfZLtTsVsNGU9yXy3MmdBqyxPXFTwbo3gsi9hf+RCBkYiIiKiYkAynWQ7yXiS9bKT7VUutQP6onm5V3EwapGpuVLObxMRERFR0SIZbn/EfByI/AXNyr6CWv59LI9kLUeXRMvK2lT6xHReWy6EZC9pIiIioqJDsptkuIjkULStPN7UGJhTNjq4BGHLli3mRzORTi/Ho5apWg6DIQWl3OqhpHtdeDmWhouDD+eSJiIiIipkMtezTOEnM7PIgNsyjqIMj1PLv5eq3jauUTT7r4OLpXOL/d7Q9sOild6YgrDYEITFhSAy4aj6UFFISIuCXgVIIiIiIio8OhUMZa5nmcJPZmaRAbdlHEWdJusRaO2FRY7MRURERER28TQ0ERERUTFSaKehL8Rsxd7wGdCrwFjNp4OpiIiIiOjeJx1cpHSWcbRtDZmTr9PQxyKXYPPZsabZXGT6PwZFIiIioqJDsptkuECX6thy7m0cj1pqeSR72YZFWdnusG/QIGCAado/zhNNREREVPRIhmsYOBgP+PfHrktfmxoDcyLLsCinnkPCJqNhwCBU9+1sWUpERERERZVkOsl2kvEk62XHbliUzixyjWJV7/YMikRERETFiGS7aj7tTVlPMl9WtKa5oqXUl5s3Fen1LJ1Z6vr3siwhIiIiouKirn9vU9aTzCfMOdCaBBV1U+7ZbFmUQbdleBy5GJLXKBIREREVP5LxJOtJ5pPsZ4/NsCizs8g4iuz1TERERFR8SdaTzCfZzx7bYTEuxDTgNhEREREVb5L5JPvZYzMsynzPMjMLERERERVvkvkk+9ljMywmpUeZpvAjIiIiouJNMp9kP3tshsWEtCjTXM9EREREVLxJ5pPsZ4/NsKg3pMCVYZGIiIio2JPMJ9nPHpthkYioODAa9NDr9TBkGDasuLqftpWI7i6GRSIqntJCMaVLc5Qs3RnPr7F/eqXoiMXhn7/AqNFTsOJkptkWrNtaphNGrYqwLCQiKhgMi0RkkYJ9EweiWvkmKJ+xKjRHjQY90LH3G/h4yb+I1lueXgToU5ORlBCHhDTLgkJnbx8Ho0rNdmje6QW8PnkzTsTcvpONYVswfswMzJs7BWMmbkekZbmVaVvj4xB/z2wrERUXDItE9J/keERdj8b1jHUtCpdCj2H7uhWYMKwn6rSdiD+v81xnntncx9dx5eJ5HN62DtPHjERw/QEY8/sVpFteIjSB9dCpZTl4eldEiw614WdZnl/G5Gs4/uc2HIm1LCAiyoRhkYhuE9DlI+w+vxeXL+9D2LmtOLhzLiY92xSlnfSI/ud7PPe/33HZYHky5UnGfXxJ9vGuRVj4cU/U99UhPWo/Jj/1KiYfzHC62TEIwxZsQtjF9fihf5kCOXinn1qMAfVbIXjofByK5y8ARGSb9tbDAw8WRKSOBI4e8Pf3hre3F3wCSqOqChTPfPUDFv1fA3hAj4t/r0fINcuTKU8y7mNf2cf1GqPnq1/izy0foVspFQVj92L6N3/j1isQtdDpNJbb+adBEmJi0mAwMvkTUQYSB1VZUyFbFokoh1xRq11zVHJSB5CYiwi9yovj7gTnaj3x1tO14QIDIvbvwvE7eHrYmLF9gG0FRGQHwyIR5Zg+MR5JekDjUQoV/R0tS/+Tdj0U62d9gVF9B+Gh5l3RvM0wDH5uImb8FQ6bI3ilhmHjzGmYMOE7zNkRCaMhHqFrZ+PFPgPQsvlj6NTvXUzeeAmJN4OMHtHH1uOL0SPRsWUXNGkxEIPe+Al/XrQ/PpiJ6TdkA2JD/8TU119Al0e6o1mLvujx1OeYs83OZ7PI9TblmzPK1qwAb3VLHxOFKOuZ6PTTWPPNNHz66beYszPasjBn9Ff24qdvvsVnn32HyQv34MiWBWqfT8GnP+zEFcn8aeHY8N1U07IJE6ar70WU2ltERGYMi0SUQ9HYtzYEYXotSj/cFa1LWhabpOH496PRqEYXPP7Kd5i3dg/2HTuFo3u2YeVPM/Fat85o+fxvOJ+5MVKTgMM/T8fHH8/B2v0H8f2oPmjV71PMWbcXBw8fwbbfFmLMYz3Q7aM9uKGC5P5vX8CDrUbjvblbsPNgKI4f3INV0z5E9xbD8fmeeMtKb6dPvIrtk0ehWfMReGv6OmzdewJHD+7HpkUz8ELnTmj98jpcuK2hNI/blG8GJMcnIFVuOrrC1ZrJjXqcXDUNH300D5su5+JNY/dj4hMj8fzb3+DLZeGo8sgDcD25DpM+noQJkzciVBJv3HEs/mqS+j5IfYdF++PY0EhENzEsEtFtNEYD9BmalvRxZ/Dbx69ixIyTQJXu+Pi9Diid6dK5tBvXEOddFwM/mIotR0JwJeIQrlzYgOVjW6GUNgHH503A+79F2gkhesT89SO+DKmEt9duwfkrB3Hh2C/4qm8luBpjsXvKJ5g49UuM/GAbXHp9iE1q/ZfDd+PQ6tfRsYwDDNdD8NU7S/CvKWFlZkDc9pl46fPDKDP8M2w6uBNhV/bhzKFf8O2wWvBAIo7OHoNnph5HptEL87lNeRWL47tOq6+AR1AtVPU0LzXJ7RslhWLW06MxYUcMXKr1wfQl76BrGSeUbPsiflgyEwunDkZDN/U83yZ4efo0LFHLliz5GmM7BEBnXgMREcMiEd3uxtav0TP4UTRp3Al1qzVB6fKd0f+LYygzaByWrhmP/kGZT0Fr4N50JFbvWYbZr3dGcGVfeLg4w71EZXQaMx6fdPGHxnAV2349gMz9YoymBBSN7VsNeG7hJLz0UHn4ebihRMUmePbbL/FyQ1cg8QimjF2A6+0+wIrpA9Fcrd/TswSqtB2FWd/0QHl1JIvdvxGbz986PqH5mrzr2PLzHlT/YAF++6IXmlUNgJe7BwKrNMGwqfOx9KVacEUcdn43Gxtu6U2S923KOz3C136FMb9cgl7jh1aD2uO2XZ1TaZew5MVn8ebaCDhU7o7JSz9A74oOpoc8qgWjS5e26NY6CB7yU0DjhbrtO5iWST1U3cP0PCIiwbBIRLdJv3EJx4+H4vi/p3H2cjQS0gww6mNwfP1STJ60CvtjMl/R5oAqD7dFPV8bhxRtSTRrWwOeKhTGXjiPqNvOoEoTpQ4VejyNQbWdzYus3Ougd++akMYvo0tNDH31UVTKFJ78WzyKR8qq9024iMNnbZ+K9mg2HOMGBcHFcv8mjTdajh6BzqW0MITtwopd1y0PiPxsUw6kxiEiPALhl6/g3Ikj2LZ2CT4a0g2NBizEiRQdSj/6Ej7qW159ilxSAdloiMKGt5/D6J8vwFi+E75YOgGDqjpZnkBElDsMi0R0m4BH38HG/Ztw+PBmHPhnBdb/Og1T/tcOFVNOYf13Y9Hh4bew7EIWU7kY0pFw4ypCD4Tg98WLsHR/vOlgk56YgESbL3NGhXqV4GO59x8HlCjrD1d1S+NXE8FV5VYmzr4I9FKRypiGBJtTtTihcqvmqHJbUjTTlqqHFtXUeo3RCD16xX6nlVxvU9aifn8XD1ZtgarVWqFOo8fQqe8YfLoiFLEGd9Qc+BFWzRmMWjY2Nzv6pCv469MXMGzacaSUaoPxS77AUzXtbDwRUQ4wLBLRbYxOJVC5ekUEBVVAtVr10LJdRzz1/rfYsXsqnqrhjKTQVXj3kz8RkfEaOmMSQtd8h9GP90DN8g1QpkIrNGg5CH2Gv4v3fzwIU//dW8ZqycgV/iU9bLaiObm7wVmjMqFfGZSUJsbMHN3hJ2ERBujTb23x1Jiuq3RDuaoBt7cqWul8UKGsBzRIR2xUrLljiVW+tilrWg8/lCtXGuXKl0HFoCqoG9waA155F0v3/I3ds/uhTp7OBOsR9dtnePqzfxDn3wLvL/4Gz9fLQ+IkIsqAYZGIcsyhTFu8/lIz+KhQcmHrZhyyjgGYehbzhnfFgwO+wNyNp5HoVwPtBzyJMRPG46eVC7FuSldzhxhzervLdHB01JpOdtuWhqTkdNOVk1oH3X/Pu8PbVKLt2/jz36048e/fOHb4D+zeMgfffzIUj9byzv2p55tScf3SVcTIPIFaBzg4FMb+JqLihmGRiHJBixJBFeGvAww3LuHsdWnJ0+Pcks/w3tILSC3dFhP/3I4zh5Zh2axxGPdSP/TuEIzaAYXZt9aA9HRzNxqb0mJx+UqiuuEEn0Av9VXchW1SIbPgs7Mrqg4Zi0/7loP26t8Y1/c1zD6ebHmMiChvGBaJKBeMiLkYhutyjZ6zB7xd5BASg8ObDiPC6ITaQ0bjqcY+mVrG0hFx6hJiJa3l8ZRtXpnfLgEXQ6/CXmQyRB7HnnMp6mhYArXqlbSExXt3m7Lj6F8HT387HZ908IchbCPe6PN/mG8aTJGIKG8YFoko5+IOYM7M3ZA+w951W6BRgLqRfgPnLskgzo7w9vNUXzNJ/BerV59QkU2iZmFIxcnVvyLE5qQnyTg8/0esv2KAQ8WWeKyJpYvNPb9NWZAWS/daeH7uVLzV3Atp537Dy33GYfGZ2zv/aHSOcJCfAmlJiEvinC1EZJv25lkQ0xGP17cQkToS6FORmJSOtDSpVMRfv4rjm+ZgZKcR+PwfFZFcqmPoG91QVZrbHPxRvYqP+s0zAYdWrMX+jKPXpIZj3fjxmHE42fSbaaFcsqgkH1+E195chmPxGaNdCk4v/hDPfHFQfXIvNH/mCTxUwvJQEdim7Gh8muCt+V9gZB1XJJ9agef7vIcVF+Vixv9ofUqhrJfaioSz2HmAU/wRkUWm4xpbFonoNpFrx6JxmXoIDFQVUA+lK7REkx6fYMHBaBg8quKJb6fhg4dl9mLhjZbDe6ORBxC7axIebdIfT772Kd56fhTaN+2OAbNT0Ht0ewSaDj53N1mZg5wf2j/dEVgxFo807IFuT47DGy+9jC7N2uDBpxfjWIIO5Xv+HyaPksG5re7dbcoNXem2mPDzR+hX2RFJJxbj2d6f4PfwDOP8+NRFl5aloDNcwdLnB6Lb8LcxsvcTGP7jGeRhNCAiKqYYFonoJq2bG9ydHOHsqFNBSzpgqNI6wNnNEwFB9dHtxY+wbt8qfDegEjIOn+0RPApzZj6Dh8o4IfniXiydMRtTftyCw4ZGGLt4MkY/4ANPVye4uDpkilZaOLm5wtlFlb3+IjpXuNt8rZUGjupz21qHztlZfXYP+D/4LH6eOwJNNWfw19JfMO373/DXkUikeASh27uzsHFOf9TINLZO3rcpa+Z97Aofj9xPzaJxdISTqzOcbLyhdVszr9a5ymOY+vNbeLS8K9LOrMG4l6fjr0hLG6ImEF3efw+jW/rDIf4C/lq8CAvW/4soXuJIRBloKlasZFRgKrWgSpUgDP06BT2DpsDV4fYhcomoGDPqkW6jSUmj1UL330UrdhnTk3AjPAxnwhLgVqoCKlfwhav8Smo0qPWqI4xGCwfdresx6vWQh7Q6XYbrYjLI4rVW9tZhXa5Ry00v1Sfh6tmzOBuRAlf/0qhcuSS8HG2v0yov25Qlgx5p6nUarS53r1NHaIPeAEPG7cng/9u7D8AoyrwN4M+mB9KQJBACBBJCt9ACKihBigUUKQqCyOlhOxvqnaJ83lnAw9MTsSDYaRqqnCgIKiqoEKqCIAQQMCEhWUoaqbv53v/sBEOY3U02JEuW52f+2d2Z3Z3ZCU6ezMz7vmd91krK54uznmMpQnZmOg6nn4JfZHO0jg4xDKRE5JkKSk9i+YEHMWeiP/bv3287UCB/BpcfNDAKi/e9EYzeUQ+jUUAr27sQERERkUc6UXgQ69Nfw8wHcg3DouFp6ECfcOSUpOuPiIiIiMhTSeaT7GePYViMaNgJR/N36o+IiIiIyFNJ5pPsZ49hWIwOTkDGqR36IyIiIiLyVJL5JPvZYxwWQxLg5eWPlJNr9ClERERE5Gkk60nmk+xnj2FY9Db5o0P4MO0NSqwF+lQiIiIi8hSS8STrSeaT7GePYVgUHcKHw9srEDvNS/QpREREROQpdpqXallPMp8jdsOij3pxt6h7VOL8CntPrNKnEhEREVF9J9luX/ZXWtaTzOeI3bAoWob2QUL0Q9iWtYCBkYiIiMgDSKaTbCcZT7KeMw7DougYMRK9mk/Ez+YkbMucz2sYiYiIiOohyXDbMudhe9Yn6Bn9CDqEj9DnOOalj/6kO/NROXmzxFZTkFm4F2sO/5OtpImIiIjqEclukuEyC1PQr/VU7WBgVZlaxrSSsf704f7KEBcXh2/XrtVnn6lUJdLd5iWqlsJqLULTBhejScPOCPGNQoBPGMeSJiIiInIzGeu5UJWMzCIdbks/itI9jrR6lsYs9q5R7JuYaDw2dHXCYjlLWRHScpKRlpuMrPxf1UqZkV9ihkUFSCIiIiJyH28VDBv6hmtD+MnILNLhtvSj6Kh7HGEvLDq9ZpGIiIiILlwun4YuS9mL6ORcNNuUi9DDRQg0l6DBsRL9mURERETkDqca+6Ig3AfZLQNwpEcw0hKCYYpvW/unoQ9nr8OW9Fko27YVHZZkqTLrc4iIiIjofLZ7eLiqCJi6dNX6VjTqMqdGp6F3ZS3CN78/heiZ32LwhL0MikRERET1iGQ3yXCS5dYefBq7zYv1Oc45DYvyZsl7p6LHv/cgYUYa/PIt+hwiIiIiqi8kw0mW6z71N2zcM0U7GFgVDsOinHpOTpuBHuqNOyVl6VOJiIiIqL7qtDALPV5P0zKeZD1n7IZFacwi1yh2eP+A9qZERERE5BnkIGDHD37Xsp5kPkfshkVp9SyNWS57L0OfQkRERESeQjKeZD3JfI4YhkXpdFu6x5FWz7xGkYiIiMjzSMaTrCeZT7KfPYZhUUZnkX4U2eqZiIiIyHNJ1pPMJ9nPHuOwmJusdbhNRERERJ5NMp9kP02ZXhUYhkUZ71lGZiEiIiIizyaZT7KfPYZhsaDUjNDDhfojIiIiIvJUMmyzZD97DMNifokZgeZS/REREREReapAc4mW/ewxDIsWaxEaHCvRHxERERGRp5LMJ9nPHsOwSEREREQkGBaJ6Jyyqjqpap+qNFU5qio1rKNzjNuciGoTwyIRnRMyuuggVcGqLlIVr6q5qjBVLVS9rKqizapk/mWq0mVCBeXzwh1UE1Ufqaqo4usSVGWrqo58VVepktd3UnVAVUXnYr26q6rKAKo/q4pRdakqCYBGqrvNiYhcwbBIRDUiYzz9Q1VfVatVydXOzVR10G+9VUnYqRy8hFxOfcR29ywSqI45KaPxpcpfJwFtlUyohq9U/aBKXm8voNV0vbaomioTnDCpktcYrUdNtjkRUXUxLBJRjbyr6hVVEm4mq5LR5FNV7VIlgUVOjyapaq2quiJVbVNVOYxJZaoarcqIHGnzV/WWqmKZUAXS/8ObqgJUhcoEB1xdLz9V8v6zVclRQVfV5jYnIqqMYZGIXHZKlQQfuWZugqrnVcnp0IoaqrpF1d+1R9Uj193JaV15T6MKVGVEjq61V7VR1QaZUAUydoEEuLaqQmSCA66uV7Sqwapkuz2uKk9VddX2NiciqoxhkYhcJmFHrjeUI1zXyYTzhOzYuqmSjiDeVuWssYfMl6OQMhTB1arsdyBRM3KU835Vcl2hhNMZqqrrfN3mROS5GBaJyGWyA5GSsLVHJpwn5Bq+oarkCOFKVXtVOSLrvkKVhLibVNXWkAQSFuWI53OqZLv9R9UvqqrjfN3mROS5ZJ/z51/dzv78JiKqQE5/Smtm8ZoqZ6GsrkgDkMtVDVQl1+99qMqR91VJy2k5ddtYVW0PSTBGlRwVlHWTU8XVOZJ5vm5zIvIsFSOhFhaJiFwhO5CXVEmDD2lY0VPVe6rcPVio7OSkRbCc8pVGJQtUSctiI9I4ROZLo5a/qpIGKLX9d7Osk2w36Upnjao5qqrqfN3mROS5GBaJqEY6qvpUlfQJKEfKJHDJtGWqpBFGTcg1hJNUjTeop1XJfEeuUCVh6g9Vsj5GJChK6JL+CuUUsVwL6ExN10vINnpKlQTTf6k6qKqqanObExFVxrBIRDUmp3yl/8DyI3kpqoapkumbVLkqV5V0cG1UX6hydgRQus+RdRLSglhaElckp56lGxp53t9UVSUoipquV7l7VPVRJX1NSvisTtCrrW1ORFQZwyIRnRNyrZ/0U7hb1a2q5DSwtPiVEVFeV+XKqV15TwlznxiUdBnjq8oZuTZQOquWEVG+lQkVSOOX31TJ0cdeMqGKzsV6iQaqpL9EaYizRNVnqqqjNrY5EVFlDItEdE7FqpLQJCOodFElp2QnqpLTvdUlO6jrVUkQqlzSX6GPKmfkWsS7VMk1fdI9TvnRO2mZLEFLjiaWH52rqnOxXuV6qHpElTSqkVFZ7F1b6ci53OZERJUxLBJRrZAWu+tVyZE9aZ0snVDbG9qvtkmIk4665cjidpmgfK9KOu2WTrivlQlu9JiqrqqkZfMLMsFF59M2JyLPwbBIRLVGTrPKOMhye1SVXGPnDjJyyihV+apmqpIgJUcV5WieHHV0NrxfbZPT0HI6WkZ+eUfVd6pcPYV8vmxzIvIcDItEVKtaqJIuYiT8SFhzlztVSSiUBihyraIcZZQh+yREng/6qrpbVYEqOdJoVlWd09kVnS/bnIg8A8MiEblMhp47Zrtr12FVEnyk0UeUTHAT6VpGTs/KUHlyqle6nJFOuGXUlvPFZFXtVMnRwLmqjMJifdrmROQZGBaJyGUSSOR6v/+qMmqYsUuVnOaVLms6qequqjqk8Ym8Vk4XG5WcTq4qea97VUlDFrlWMViV9E/oinO5XhXJ0cCXVUnIm69KuuiprLa3ORFRZQyLROQyCU37VMlp06aqWqu6WpV03SL3L1a1TZXMk2vxGqqqjkxVckQwyE7JqVtp1VxV0gehlOivqrPtbrWd6/WqSFpZy3CA0nrbaFSW2t7mRESVMSwSkcsiVEloidMe2UYhkVbG6/T7cvROjnLJadXKR7hk5yNBxqhxicyT0CWdZUs4MipR+TRt+evsNViRo4oPqJIjeHJrbwcoQ/5Jo5PKarpeYdojx+S50ldjvCpZTuXPUpNtTkTkClPLmJiyMrkKWn2TO3Ft4jDu1SKM6r8ZDY7JCRUiIudyVMm1csdVNVIlR7YuUiUdRdsjexgJWEbX5lVl7yPBqvL7O3rPcnLEztl8eQ+jda/N9apI+oOU09mOXuPKNiciquxUY1988lV3zJnoj/379sNkUnseVbYbk7ZPO0tD33AUhFd1DAIiItuRODmtK6dD5VSoHAFzFlpkL2MvCMk8Z2X0/jLdWSCrynx76155HYzK1fWqSHbOzl7jyjYnIqqsINxHy372GIbFQJ9wZLeUEyBERERE5MmyWwZo2c8ew7AY0bATjvSQK1+IiIiIyJNJ5pPsZ49hWIwOTkBaAsMiERERkaeTzCfZzx7jsBiSAFN8W+webv+QJBERERHVb5L1JPNJ9rPHMCx6m/zRIXyYeoMIFDfk5dJEREREnkYynmQ9yXyS/ewxDIuiQ/hwmLp0xfa7pDMGIiIiIvIkkvEk60nmc8RuWPTxCkS3qHuw6y+t8eut0iEDEREREXmCX2+JwO47Y7WsJ5nPEbthUbQM7YOE6Iew6cFo7U2JiIiIqH6Tg4CbHorWMp5kPWcchkXRMWIkerZ7Gpufao9k9ca8hpGIiIio/pEMJ1lu05PtkND2KXQIH6HPccxpWBTyZomtpiDtvr5Y8Q5bSRMRERHVJ5LdJMNJluvXeqp2MLCqDMeG/nbtWtvcSkqtBdhtXqJqKcpS9iI6ORfNNuUi9HAhAs2lHEuaiIiIyM1krGcZtllG45MOt6UfRekeR1o9S2MWe9co9k1MNBwbulphsZylrAhpOclIy01GVv6vKCg1I7/EDIu1SH8GEREREbmDt5e/NtazDOEnI7NIh9vSj6Kj7nGEvbBYpdPQRERERHRhcvk0tNVahKYNLkaThp0R4huFAJ8wlWDD9GcSERERkTsUlJ5EoaqcknQczd+JjFM74OVlG3ClVk9DH85ehy3ps2BRgTE+bIBWRERERHT+Szm5RitvvR9toy5zanQaelfWInzz+1OIDIjHgJbPMigSERER1SOS3STDRQa0xdqDT2O3ebE+xzmnYVHebGPadFwWMQpdIsfC10kv30RERER0/pEM1yVyDC4NvxUbUl/VDgZWhcOwKKeek9NmoEvEbWjb6Fp9KhERERHVV5LpJNtJxpOs54zdsCiNWeQaxTah/RkUiYiIiDyIZLv4sP5a1pPM54jdsCitnqUxS+fwYfoUIiIiIvIUncOHa1lPMp8jhmFROt2W7nHkYkheo0hERETkeSTjSdaTzCfZzx7DsCijs0g/imz1TEREROS5JOtJ5pPsZ49xWMxN1jrcJiIiIiLPJplPsp89hmFRxnuWkVmIiIiIyLNJ5pPsZ49hWCwoNWtD+BERERGRZ5PMJ9nPHsOwmF9i1sZ6JiIiIiLPJplPsp/GZLuxsT0wDIsWaxECGRaJiIiIPJ5kPsl+9hiGRSKiOlFWiryjf+C33w4hI7sYVn3yac7mExFRrWNYJCI3sODYxg9xR/ceaBaXiG7d+qPTdTOxvVCf7XQ+ERHVFYZFIjKWtxXPD+yNlq1uwCMrj+sTz42i3XMxbvgULP6tGE27D8TtYweia/MAeFdxfv1QhK0vjUZ8i+5o0fJyXPXUBuToc6oqf/MMDGzTQ72+F7r9ZRl+56FVInIDhkUissOC/CwzjplPItd6xhXPNVOWieUvvI3vTngh7s638NPat/D2rDexZuE9uDSgCvPrk8I8mI+fxPFjWdiaNB+r08v0GVVxHGtnLcZP6SfU6804YnY8disRUW1hWCSiulWYgT2/56LMOxr9hnVF48o51Nn8escbQY3D4J+xDu8s2o9ifaozpftWYtYX6QhoEoGQer8NiKg+Y1gkorqVn44DR1Vk8gtDswiDQ4XO5tc7Xoi6IgFt/fOwac4iJOfpkx06hc1zPsGPJ4PRpmsMQvSpRETuwLBIRG5TVub4tKyz+fWDFV5hHdAl1g9Fe1bgva/McPapyjLXYXbSHhSGdEKf9up1nrAZiKjeYlgkohqx5uzHqjen4Pbrh6Nn9xtw1bX3Y+J/V2HnCYv+DJuT2z7Fqy/OwNTZPyFDm5WDbQvextSpM/Dii7Mwa948h/PnJp/ZyKaqy9WUpGH1W+q9p87EO+syVQg9hZTPZuKBUeNx46in8M+X3sJL097Ca0t+Q77+EiMntizFf6e9if/MXodDVT2frJSaYjBk5KUIth7Fl7NXYl+pPsNQKVIWz8XKVCC6/zAMjvFVU5woysSmRbPx+Ljx6N97MBJ6DcOAoY9h8uzvkJJjp1WMo20y+jl8tJPXSBKRjallTIztj3f1Te7EtYnDmFdyMKb9QtsziOjClLcJT/a5Ha+nNMaopBV474ZG+oxyFmStnY4x42fjB7MENBO8vEywWm3hxDu8F55OehP/6BWqjQFwYtUT6DViCVKNjpKZmmDYP3og+aUVdueP+kStw2BZh+otV1OyF68OHI7JyQ0w+I23MG7Ps7jz9V3Qzgj7xGLc/ZFYPmMD8uPGYNm6Z9EvVHvVmcoyseSOoRi/JBudHpuLr57riiB9lrEibH1uBK6ZtgfN7nwf6544joeufhzLTrbDY18k4bmeDfTnVaK2+9P97sD0fa3w0LIPMebnR3DNpGR49XsOPy6/Da3P+BPfimM/zMJf73wda1KLbUcsTV7wUtOt+nb0adwVD773Bv41IBI+tkk2DrdJHB5a9SlevDxQeyoReb75v92C+Y+FYP/+/WrfqfaeJvVdKx5ZJCIX5W58A7eMnokfjvmj3a3PYNX2n5B+dCt+3/IOJg9oCm/zBrx41wtYnm4Lcb5tR+C1T97GJ3P+jsFRau8T2A53zZiJpKS3kfTJ8xjb+2aH8+9oZ4s61V1uufIMWrRtDp7+4Dh63P8M5q2Yj09njke/gTfh6kgTSg9+j2WbsvVnnsl65CcsXpcFa1AnjLyls5OgeKYyldy8myfi7uGx8Cvcg4Xv/gTjUVjLcHTNfCzcVYyQhFsw/orG8D8j4Z0pZ8PrGDH8FaxOLUWjhHGYtWolfju8Hel/rMPmL6bgrq6hsB7bilfH3oepG3L1V/3J/ja5A91CjFI7EV2IGBaJqPpO7cAb/3gXybkB6PzgLHz93jj0iQ9HUIMgRLZPxKQFM/FkQkOUHFyF6XN/g/SlHRTbA9cO7o8hV7dCAy2H+KN5z74YrKYNHtwPg/pd7XD+VfHBLi33THnY8V0aEl6dj8X/GYebE3tiwG23YWTiNRhzTVN4WY7gm6XbcUJ/9p8sOLR6OdZllqFRz6EY2t5Pn14dweh5xwj0CLYideU8/O+Aweny4n1IevtbHEEkBky4Hm195bipHfnb8epj76ht4YPYUS/ju1XPYGyfeLS4qAGCGkWhw9W3YsbqJPx3UGOY8n7GW88sxG7DU+fG22REJztHPonogqOHRf4FSURVd3zdAszdVgCf1kPw7OOXo1HlRNOgM8b+tScuQgF2f7URh5xedFc1NVqudr1NEXKCe2PCTTE4s531Regz9hrE+Vjwxzef46dj+uRyJQexcpEKkaYIXK2eF+vgaJ8j/h2HYMKASODEZry/4Fec0qeXy9mYhA835sG//WDcPTDSflBUjq9PQtKOQpgi++HpZwcj1l+fUVFgG4z++wh0Vh82d8unWKyefwaH24SILkgGkZBHFomomgqQsv4XpFtMiLysB+L8i1BYWKmKCuHVOAqNVag6dXgPfj/7DKgLarhcufAGvmjdry86NbRNqii0x1AM7egPS9qPWPLjmWmxOOUbLN2SA++WfXH7NU0chjiHTE0waML1aOdXgB0ff4x1FdvslB3Fl7M+x96SIPQYNxIJwfp0QwXY94NsC6Bxz2txVbT9XXnQJYno10ptkMIj2LLDfOb42k62CRGRYFgkomo6hfTDxyHNKdKXT0L36EvQpEmlirwM7W/5WGv1ay3MQ241Wg7bdy6WG4DIlo2Nj6A17IRbbu2MIGsmvl+6GZn6ZJWysHPZ59ie54v4G2/GlY31yS4K6Xkr7ugZjNKDazB7Rerp8Fa8+zPMXpMFU9RVmDCyDRyf6D6FI4dOoEQFvSbtYs4+wlpRQCRim8kp5UKY03PVaypzsE2IiBSGRSKyw4JS7TSlCd5eFdJIWTHy8yVymNCwSSu0a9fGuNrHo2OndujYtjECy5vm1kQNl2v7BH4IDfW3s+PzRbshN6FnmBXp36/A9xn6a/N2YfmKfSho0B7Db70EDg/4VYV/G4z4a29EmU5i3Xuf4heth5oc/PBuEjbl+aDNzbdhoDTwcaSsCLm5RSo2e8EvwNfxjtw7AKHBvuqOFSWFxWccWXS+TYiIGBaJyJ6CkzDnqmjhFYjQIAkbOpM/goP9VNAw4aL+T2LVxs+RnGy/Nq1+1ta6uabqYLnesddgbN8I4OgmLP0+U7t0J2fb5/jf7kKEdB+KEXLxX42Z0GzQ7RjZ3g/525bgne9OwJL6DWYtPYiSoC4Y/5duzkdsMQWiUSN/9U7FyNyfbuvuxp7ik0jNkKsjfREWEay+ExFVD8MiERkqPXkUGXkqLjVogrioiiEpCK06RCEQVhw/8Dsyz1HjFefqYLmmJrhmTB80Nx3Dj0s34Ij1JDYkrcWBkovQe2x/tDlXSSv4MowbdxlCLGn48qMvsXrpUnyfBUReMxojOlRlIcGIu6QFGqg4m30gBUfObvb9p7w07M0oAnyaoPMlEWf2tUhEVAUMi0RkoBT7v1yF7XnSoLYHekR769OFH2Kv7I4YP5VDNiVh9rqT+vTaVjfLbdxnOG6K94F5/Wf44ofv8PHXaShr3ge3D4w+hztMP7QfORaDmgEZ387FtA+2Ids3FsPv6YvoKh0M9UHrfom4OEi2xRy8uCwNBh3xKMXYNe9dfHrICr+4PhhyaY1PohPRBYhhkYgUCwoLyw/VlSFvx8f4vxlbkYtgdB91Ay6uNJBHUI+R+MvloSqL7MfcR/+FWVtOnhVWSo7/inn/ehmL9hnHGFfUyXKDL8HIm9si4MR2LJ69DOtSTYi9YRiujtDnnyOmqD64a3gc/HL2YNPeAgR1H4bxvZyegD4toNMwPDy0JXytmVjx5KN45vNUFOnzbIpw4NNpuHfaJuR4RWLgxDtwpdHINERETjAsEpHKhxlYeN/NuLzvaAy4vC/aXvUcPk+zIuzKezB1vEHLXL82mPDakxjawgenUlbg0Wv6o0viXbjz0ZfwzKTJGHvtIMS3vRn3zPoFJ87B5Yqn1clyA3HJiBvRNegk1i9dj3S/eAwd1RXnPmcFo+f4W5Ag+dAUjn4TbkJHo74S7VEB8MZp/8ETvRuhzLwF00ddh04Jt+G2B6biib/dj2sTEtHr9o+wJTsI3R56CW+MieH1ikTkEoZFIlJM8Mo7ip2bNuHHX9KQbWmIdsOfwrKku1Vo0p9SiV/8SHzw9Xt4blhbNEI29id/h6RZs/HKjE+wbP0fsMb0wcOvTcbo1hVPYQsTvP384B/gf3YI1Tie7+pyvf394e/nA+8qhEi/tgMx+vIw7X5QlyEYealrYyR7NWiAhn4NEBJceRvY+LW7AfcOaYXGnW/Evdc2Nd4h+6pt4euPkIYGWyOsGyYtX4qFkwehY1gpMn5NxvIP3scbH67Gul0n4BOXiH8sWIpVU3ojwuDNq7NNiOjCZWoZE1OmyJknyG1cmziMe7UIN8W+jkAf286SiDyftTAb6YcOITXXH01iWyPmIml5XDWWvCwcPJiOoyeL4Bt8EaJimqNZmL3uWMpgLbVqXbh4+XgbPMfZ/D9VZ7llFgssaj/n5a3e09kHK/0ds28egYnfmND/9aVYemdLGMc9J6wWlKiFmtQyfewtVD2nVK2x3fllVpTKe3h5ndmFUWWWApgPH8ahjByU+IcisnkLxEQGOlzvam0TIvJYBaUnsfzAg5gz0R/79+2HSTrsVyW32l2jsHjfG8HoHfUwGgW00t+GiOjCcWrzdAy49g38EnYDPlw/HcObMkkRkec6UXgQ69Nfw8wHcg3DouEf7YE+4cgpSdcfERFdSE5i/Yf/w84Cf3S8dSwGMigSkYeTzCfZzx49LOo7Q/0momEnHM3faXtARHTBsOLEunfx/KLDsERciQfv7lrzEVuIiM5zkvkk+52tTPtueGQxOjgBGad26I+IiDxb5tdv4sGHn8djfxmDK4bNwtaCJhjy7CSMjHHpSkUionpFMp9kP3uMw2JIAry8/JFyco0+hYjIc5Wd2I0V73+EtxduQqp3HG75zyy8Pa41qtOTDRFRfSRZTzKfZD97DMOit8kfHcKHaW9QYtVGuSci8liNB0zC/76cgy++/RIp+z7HB/d0RigvVSQiDycZT7KeZD7JfvYYhkXRIXw4vL0CsdO8RJ9CROSZfEKjcfEVV+DqHnFoGsRTz0R0YdhpXqplPcl8jtgNiz7qxd2i7lGJ8yvsPbFKn0pERERE9Z1ku33ZX2lZTzKfI3bDomgZ2gcJ0Q9hW9YCBkYiIiIiDyCZTrKdZDzJes44DIuiY8RI9Go+ET+bk7Atcz6vYSQiIiKqhyTDbcuch+1Zn6Bn9CPoED5Cn+OY07Ao5M0SW01BZuFerDn8T7aSJiIiIqpHJLtJhsssTEG/1lO1g4FVpQ/3p+6pb/JfXFwcvl271ja3klKVSHebl6haCqu1CE0bXIwmDTsjxDcKAT5hHEuaiIiIyM1krOdCVTIyi3S4Lf0oSvc40upZGrPYu0axb2JipeH+5EbdVicslrOUFSEtJxlpucnIyv9VrZQZ+SVmWFSAJCIiIiL38VbBsKFvuDaEn4zMIh1uSz+KjrrHEfbCYpVOQxMRERHRhYmnoYmIiIg8iNtOQx/OXoct6bNgUYExPmyAVkRERER0/pMGLlLSCbf0rWjUZU6NTkPvylqEb35/CpEB8RjQ8lkGRSIiIqJ6RLKbZLjIgLZYe/Bp7DYv1udUogJiZU7DorzZxrTpuCxiFLpEjoWvk16+iYiIiOj8IxmuS+QYXBp+KzakvqodDKwKh2FRTj0np81Al4jb0LbRtfpUIiIiIqqvJNNJtpOMJ1nPGbthURqzyDWKbUL7MygSEREReRDJdvFh/bWsJ5nPEbthUVo9S2OWzuHD9ClERERE5Ck6hw/Xsp5kPkcMw6J0ui3d48jFkLxGkYiIiMjzSMaTrCeZT7KfPYZhUUZnkX4U2eqZiIiIyHNJ1pPMJ9nPHuOwmJusdbhNRERERJ5NMp9kP3sMw6KM9ywjsxARERGRZ5PMJ9nPHsOwWFBq1obwIyIiIiLPJplPsp89hmExv8SsjfVMRERERJ5NMp9kP3sMw6LFWoRAhkUiIiIijyeZT7KfPYZhkYjIk5RZLbBYLLCW6ROIiKjKGBaJ6DyUgx0fv4x7//Y6lu11PLKAUyUpeP36XmjSbBDuXZ6pTyQiIkdMFb4zLBJRLSnC1pdGI75Fd7SoWC0TENf+GvQa9AAen/EN9mRb9Of/qSxtLaZOmoW5H76OSS/9gCx9uqssxYUoyMtFXok+oUYqfK6Wl+OqpzaoaFs9+ZtnYGCbHur1vdDtL8vwu1WfQUR0HmJYJKLaU5gH8/GTOF6xjh1Hxh+HsGP9KsycdDcSLhmFSSszUKq/RJgiL8agK5sjODQGVwzoiMb69PNG+ec6loWtSfOxOr0657ePY+2sxfgp/YR6vRlHzDU8ckpEVMsYFomo1kVc/zw2HtqCI0e2IvXgOvy8IQkLXrgJlzTyRql5G2bcOREzfq4QmnxjMX7+10j7YzXev7XZebqj8kZQ4zD4Z6zDO4v2o1if6kzpvpWY9UU6AppEIMR2hoeI6LzGsEhEta7MNwjh4aEIDQ1Bo4gotLm4G26a+Aq+Xfs8BjdVu6GcLZg5/XuceUWhF7y9z+c05YWoKxLQ1j8Pm+YsQnKePtmhU9g85xP8eDIYbbrGIESfSkR0PmNYJCK38Y+/CU/e1REBsCJz2wbsru7Ff25lhVdYB3SJ9UPRnhV47ysznJ2MLstch9lJe1AY0gl92qvXsXU2EdUDDItE5Eb+iG7fEqHqniXbjNOX75Xux4rpb+Hf/34TH/x0Up9owJKHlK8/wbP33o3rEm9EQq9hGHDjg/j7jNX4OatqrVksGVswZ/qbmDbtbcxYsBnp1WgEU2qKwZCRlyLYehRfzl6JfRUvvDxLKVIWz8XKVCC6/zAMjvE94zpNQ0WZ2LRoNh4fNx79ew+2fb6hj2Hy7O+QksNWMURUNxgWiciNrCjMy7dd7+cbiEBfbSJQZsHe5W/h+efn4usjxumtcN9neOiqq9Htxsl4ae43+H7Tb/jt1x348euVeGvSk/i//2Wod3ciZxteuv1u3P/0dLyyJB1xfbsgqnwdnCqDxeci9BwzGv2beiF740LM3XJKn2cgbxs++nArcvzbYPhfr8RFBQWwn0utOPbDTNx8SV8kjn8JM5esx0/b92L3zl/w45rleHXiXejeeRQmr8l0HjiJiGqIYZGI3CgHuzfs17qeCYrtgDbBtqkaB6doSw4sw4QbHsd723MQ2O4GvLB0JQ5k/IKj6Zuwd/NHePWv3dEsQH+yPQUpeOeuv+HFH7MRED8CMxf9H25o5q3PrJoyaxm8myfi7uGx8Cvcg4Xv/gTjAbPKcHTNfCzcVYyQhFsw/orG8PfRZxnI2fA6Rgx/BatTS9EoYRxmrVqJ3w5vR/of67D5iym4q2sorMe24tWx92Hqhlz9VUREtYNhkYjcxIL0L/6LSZ+kwmJqjN639UdsVY7qlR7ER49MwbJUK8KufASffTsdEwfFo0lQAAKDwhDd4Urc/dpsvDW6uf0dXEkqFj14D/7xRSZ8Wg/BjMXPYniMg/TmUDB63jECPYKtSF05D/87cHa/kSjeh6S3v8URRGLAhOvRVn1Ou0138rfj1cfeQXKuD2JHvYzvVj2DsX3i0eKiBghqFIUOV9+KGauT8N9BjWHK+xlvPbMQu6vaFJuIyAUMi0RU+4pzkZmeifQjGTi4ZyfWf7EIz48djK6jFmBPkTeirnsIz49sgarEtbzkJMxefxJlQd3xxPS7kWCn/xkvL4PpZXI00Iw1T9+Hv318GGUtBuHlxS/itjZ++hNc499xCCYMiARObMb7C35F5ZPRORuT8OHGPPi3H4y7B0baD4rK8fVJSNpRCFNkPzz97GDE+uszKgpsg9F/H4HOAUDulk+xWD2fiKi2MCwSUa0zr3wGl7e5Am3ie6NT16EYNHIS/r0sBTnWhmg/+nks/2AMOgTqT3aoGAfWbcTvRUDY5TfjpvZVvsBQYynIwHf/fgDj39qNoqaJmLroZdzZ3tn56iowNcGgCdejnV8Bdnz8MdYd16eLsqP4ctbn2FsShB7jRiKh4qn2sxRg3w+/IN0CNO55La6Ktr+LDrokEf1aqXhdeARbdpidX59JROQihkUiqnVeQY3RvHkUmrdohpjYOHRO6INRjzyDxZu+x8Z3b0GnIP2JTuXj8N6jKlL5IKpzPCKqtQezwPz5NNw1bTNyw6/AvxZOx/0XVymhVklIz1txR89glB5cg9krUk+Ht+Ldn2H2miyYoq7ChJFt4PgY5ikcOXQCJfBFk3YxaOToEGRAJGKbNVB3CmFOz3XQWIaIqGYYFomo1l3U72l8+9s67Pnte+za8SU2rv0A700Zh+s6hFbp1PNpZYXIzi5CGbwRGBSgvldHMY6nHkW2NB/28oGPj6Mk5gL/Nhjx196IMp3Euvc+xS9aN0A5+OHdJGzK80Gbm2/DwCgnyywrQm6ufD4v+AX4Ot5BewcgNFiOrFpRUljMI4tEVEtMDItEVAdMJvmqOZM/goP91K6rGEf3HUGVBk05LRBtxj6Ff49sDq+j32PyyEfx7u5zea2fCc0G3Y6R7f2Qv20J3vnuBCyp32DW0oMoCeqC8X/p5nzEFlMgGjXy1z5f5v50x5+v+CRSM+TqSF+ERQSr70REtYNhkYjqkSC07hilYl8Zsg/uQ0aRPrmKfMM74a43Z2LKgHBY077C30c8gXkp1XwTR4Ivw7hxlyHEkoYvP/oSq5cuxfdZQOQ1ozGiQ1XiXDDiLmmBBvL5DqTgiKMsm5eGvbIBfJqg8yUR1TtCS0RUDQyLRFSP+CG2b2+0DVRZaeNHeGFpGgw6qrFPjnA27ID7P3wDT/YKQcnBz/HwiMlYeOBcXfHnh/Yjx2JQMyDj27mY9sE2ZPvGYvg9fRFdpSOrPmjdLxEXB6nPt2kOXlxm7/MVY9e8d/HpISv84vpgyKUOW80QEdUIwyIR1SsNu43Go0Oi4WPNxOdPPorJyw+jfJRAGytyfv0aH3+fLj3lGDKFdceT817G3Z0CUbhvGe4f8U8s++PcjIViiuqDu4bHwS9nDzbtLUBQ92EYr4JpVQV0GoaHh7aEr/p8K9Tne+bzVJx57LMIBz6dhnunbUKOVyQGTrwDV8p4iUREtYRhkYjqF6+mGPbKS3i0VxjKzFswY+wN6NRjNEbd9wImPfwIhl59Ddr1noSlhxwMAaN4R/XDix8/j1ta+6Jgz0LcM3wKVkqfNTUWjJ7jb0GC5ENTOPpNuAkdjfpKtEcFwBun/QdP9G6kfb7po65Dp4TbcNsDU/HE3+7HtQmJ6HX7R9iSHYRuD72EN8bE8HpFIqpVDItEVGu8GjRAQ79AhAVVP86YfH3hF+gPP4PTt6aLeuKfny3GvMf7Ij6oGJm7NuGzOR9ixrsrsGarGSHd+uHqNgGnO7/29veHf4MgVF4N/7iheOPjJ3Fdi0CUHFiByQ/PxHdZztsV2z5XA4QEG7fH9mt3A+4d0gqNO9+Ie69taryj9fWDv68/QhoadKYT1g2Tli/FwsmD0DGsFBm/JmP5B+/jjQ9XY92uE/CJS8Q/FizFqim9q9l9EBFR9ZlaxsSUlckf4Oqb/BcXF4dxrxbhptjXEegTZnsWEZErrBaUWMpg8vKGj3d1mkOXqZdaYVX7JpO3Nxy+tPQUMg4eQqq5EN5hEWjWLBIRIX5nBLQyiwVqNey+V/l84XR5ovxzqef6GI0UI9RzStVa2J1fZkWptm284G3vOcJSAPPhwziUkYMS/1BENm+BmMjAanYbRERkX0HpSSw/8CDmTPTH/v371R/a0oOF2i9pPVnY6TqnoW84CtULiYhqRIVEX1+fagZFoXZOEsR8qhDcfBqgaZsO6N6rC7q0b44mlYKi0EKdg/cqn1+l5Ynyz+Uo5ElAdjTfpIKkLM/Rc4R3IMJbt0O3y3ugV9e2iGVQJKJzTDKfZD97DMNioE84ckrS9UdERERE5Kkk80n2s8cwLEY07ISj+Tv1R0RERETkqSTzSfazxzAsRgcnIOPUDv0REREREXkqyXyS/ewxDoshCfDy8kfKyTX6FCIiIiLyNJL1JPNJ9rNHhUVp86JUuMba2+SPDuHDtDcosZ7Z3S0RERER1X+S8STrSeaT7FdZeTQ0PLIoOoQPh7dXIHaal+hTiIiIiMhT7DQv1bKeZD5H7IZFH/XiblH3qMT5FfaeWKVPJSIiIqL6TrLdvuyvtKwnmc8Ru2FRtAztg4Toh7AtawEDIxEREZEHkEwn2U4ynmQ9ZxyGRdExYiR6NZ+In81J2JY5n9cwEhEREdVDkuG2Zc7D9qxP0DP6EXQIH6HPccxpWBTyZomtpiCzcC/WHP4nW0kTERER1SOS3STDZRamoF/rqdrBwKoytYxpVVY+LrQMEi1jQ3+7dq0++0ylKpHuNi9RtRRWaxGaNrgYTRp2RohvFAJ8wjiWNBEREZGbyVjPMoSfjMwiHW5LP4rSPY60epbGLPauUeybmHjG2NCnx4c+MywCbeJisdZOWCxnKStCWk4y0nKTkZX/q1opM/JLzLCoAElERERE7uOtgqGM9SxD+MnILNLhtvSjaNQ9TkWnw6IeFOU/LSzGqLBoC4pVD4tERERE5FkStbB4QOtgsWJYtF2zqEKikM4XSy0WZGVl2SYQERERkceT7FdaatEfnclLS4hStm8oKizC3pQU7T4REREReT7JfoVFhfojWyaUG7l3ujW0PhlFxUVI2btXf0REREREnk6yX3FRsXbflgn/DIx6WPxzQl5uHubPX4DU1FTbNCIiIiLyWJL5JPvl5eWdjoQ2tgcqLP4ZFEVJSQkyMjLwxptv2iYQERERkceSzCfZTzKgRmXCPzOjCd5hYY3+ZdKm/DlZzlkfMx/Tmk+3b98eISEh+hwiIiIi8gRyRHHq1BfxzdpvcOzYMW3a6b4VtcCo32/VqrXedY56hu2e7b4SGhqCpk2bYuyYMYiPj0fbtm0RERFhm0lERERE9Yq0et67dy9SUlIwb/587YhiTnaObWbFgKgHRm1Kq9YqLKpwqH0zCI2+vj4IDgqGn78fAvwD4O3tpeZoT3XA4UyHXH6l64usgbpfaP36mG5Z2zp3gfzTUy6Mn6d7aHtkz+eGj3mBbFnFxU96wfxM6n6ptqBV1xwsVM2SudI9TlFRIYqKi7VrFEtKSrV1/TMkVryvP27VOlZLhbZwqH4ZyJf+2PZVYbrt2+lbe7T5rnLxpe5YZk24vL4ur6vrH9INm6d+/UzqmwvkY5IT6hcA2af9sqxrNVik6y+tP5/THT8T7ZRsXavBIh1uIzVLm18eAG0TtFvbqefyaRXn6/fPDIvybnKr7mhfZ94/69YO7TV1rQaLdPRZHHLLx7wA1rUm3LDImnDLNiJyE+2Xz4XAxY9Zs63jloW6xC3/DlzePDVY1/Nsmdr7al8Vb9X3itPkcfl0eY02U91vrcKi9gtLvrR7Fe8rFafJf7aJ2pc9+itd4+JLL5RluqpG6+oqNyyyJgutZ6tLtcQd/6/Ydstklxs2T80W6eKr69E/A7f8m63BIl1eX09apjZLPUPdas87fVtxmu2+9kjua3fVbetYFRZl36iHwor3bV9/3lY+ymiPNr+u1WCRLq+vWz7mBbCuNeGGRdZkoW5Z3QtFfdq42h7Z87nnY7phqW5ZZB0vtAaLq/N1FS4uskbr6o5lOqKHv7NOOWvzbI/tnY5WYTFOZUDZq6pf7drOVW7VHe1Lv9XCo8yS2/J5DtjeyCX6kuqWi4us0brW8cesT+taE27591MT9Wx1XXfBfNA6pvbkF4J69jG1X7R1rY4XWd8+o8vrW8+W6ejF2hz1TVuvCkGw8jTtkdzX7tqmaWFR+xUr+3I9FJ4RHvVptlt1T/uy3dqjv8I1Lr60Rst0VY0+Zh2vr1s2T/36mbjKLZ+Tao87fpzaXpns0X9t1R9uWN0630b17TO6+FK3/NuzJTaXOHylmql9HvnSlqF/Oj0Qao/lfoVp2iO5HytHFtV0W0Asv1W//mwTbb8ItS+DW3sczHLG4fs6UoNlusrlda2B8p9TnXLDIl3ljp9Jfdo+7uKWn8sFQN+tkyNu2ERu+bnUo38KtqBSt1z+mdRoVV17cW0t0hb8Kt/qW6ZSOLRNKp9nwv8DOfvobCPV7PgAAAAASUVORK5CYII=;" vertex="1" parent="1">
          <mxGeometry x="1298" y="210" width="651" height="602" as="geometry" />
        </mxCell>
      </root>
    </mxGraphModel>
  </diagram>
</mxfile>
